<svg xmlns="http://www.w3.org/2000/svg" width="13.689" height="14.422" viewBox="0 0 13.689 14.422">
  <g id="Group_155" data-name="Group 155" transform="translate(529.204 -405) rotate(90)">
    <path id="Path_19" data-name="Path 19" d="M22.063,11.667H8.359a.359.359,0,0,1,0-.719h13.7a.359.359,0,0,1,0,.719" transform="translate(397 511.052)" fill="#1c3150"/>
    <path id="Path_20" data-name="Path 20" d="M26.022,13.69a.359.359,0,0,1-.254-.613L32,6.845,25.768.613a.359.359,0,0,1,.508-.508l6.485,6.485a.36.36,0,0,1,0,.508l-6.485,6.485a.358.358,0,0,1-.254.105" transform="translate(386.556 515.514)" fill="#1c3150"/>
  </g>
</svg>
