<svg xmlns="http://www.w3.org/2000/svg" width="43.25" height="43.249" viewBox="0 0 43.25 43.249">
  <g id="Group_689" data-name="Group 689" transform="translate(-890.12 -861.729)">
    <path id="Rectangle_208" data-name="Rectangle 208" d="M-.8-.8H9.83V9.831H-.8ZM8.23.8H.8V8.231H8.23Z" transform="translate(890.92 895.147)" fill="#394553"/>
    <path id="Rectangle_209" data-name="Rectangle 209" d="M-.8-.8H9.83V9.831H-.8ZM8.23.8H.8V8.231H8.23Z" transform="translate(890.92 878.838)" fill="#394553"/>
    <path id="Rectangle_210" data-name="Rectangle 210" d="M-.8-.8H9.83V9.831H-.8ZM8.23.8H.8V8.231H8.23Z" transform="translate(890.92 862.529)" fill="#394553"/>
    <path id="Rectangle_211" data-name="Rectangle 211" d="M-.8-.8H9.83V9.831H-.8ZM8.23.8H.8V8.231H8.23Z" transform="translate(907.23 895.147)" fill="#394553"/>
    <path id="Rectangle_213" data-name="Rectangle 213" d="M-.8-.8H9.83V9.831H-.8ZM8.23.8H.8V8.231H8.23Z" transform="translate(907.23 878.838)" fill="#394553"/>
    <path id="Rectangle_214" data-name="Rectangle 214" d="M-.8-.8H9.83V9.831H-.8ZM8.23.8H.8V8.231H8.23Z" transform="translate(907.23 862.529)" fill="#394553"/>
    <path id="Rectangle_215" data-name="Rectangle 215" d="M-.8-.8H9.832V9.831H-.8ZM8.232.8H.8V8.231H8.232Z" transform="translate(923.538 895.147)" fill="#394553"/>
    <path id="Rectangle_216" data-name="Rectangle 216" d="M-.8-.8H9.832V9.831H-.8ZM8.232.8H.8V8.231H8.232Z" transform="translate(923.538 878.838)" fill="#394553"/>
    <path id="Rectangle_217" data-name="Rectangle 217" d="M-.8-.8H9.832V9.831H-.8ZM8.232.8H.8V8.231H8.232Z" transform="translate(923.538 862.529)" fill="#394553"/>
    <path id="Line_210" data-name="Line 210" d="M.8,7.177H-.8V0H.8Z" transform="translate(911.703 887.923)" fill="#394553"/>
    <path id="Line_211" data-name="Line 211" d="M.8,7.177H-.8V0H.8Z" transform="translate(911.703 871.58)" fill="#394553"/>
    <path id="Line_212" data-name="Line 212" d="M.8,7.177H-.8V0H.8Z" transform="translate(928.035 887.923)" fill="#394553"/>
    <path id="Line_213" data-name="Line 213" d="M.8,7.177H-.8V0H.8Z" transform="translate(928.035 871.58)" fill="#394553"/>
    <path id="Line_214" data-name="Line 214" d="M.8,7.177H-.8V0H.8Z" transform="translate(895.432 887.923)" fill="#394553"/>
    <path id="Line_215" data-name="Line 215" d="M.8,7.177H-.8V0H.8Z" transform="translate(895.432 871.58)" fill="#394553"/>
    <path id="Line_216" data-name="Line 216" d="M7.146.8H0V-.8H7.146Z" transform="translate(916.324 899.685)" fill="#394553"/>
    <path id="Line_217" data-name="Line 217" d="M7.177.8H0V-.8H7.177Z" transform="translate(899.997 867.061)" fill="#394553"/>
  </g>
</svg>
