<svg xmlns="http://www.w3.org/2000/svg" width="53.119" height="49.722" viewBox="0 0 53.119 49.722">
  <g id="Group_690" data-name="Group 690" transform="translate(-1249.211 -857.211)">
    <path id="Line_178" data-name="Line 178" d="M19.355.8H0V-.8H19.355Z" transform="translate(1257.461 881.423)" fill="#394553"/>
    <path id="Line_179" data-name="Line 179" d="M19.355.8H0V-.8H19.355Z" transform="translate(1257.461 875.491)" fill="#394553"/>
    <path id="Line_180" data-name="Line 180" d="M16.621.8H0V-.8H16.621Z" transform="translate(1257.563 887.355)" fill="#394553"/>
    <path id="Line_181" data-name="Line 181" d="M14.465.8H0V-.8H14.465Z" transform="translate(1257.563 893.287)" fill="#394553"/>
    <path id="Line_182" data-name="Line 182" d="M12.983.8H0V-.8H12.983Z" transform="translate(1257.563 899.219)" fill="#394553"/>
    <path id="Line_183" data-name="Line 183" d="M0,2.983a.8.8,0,0,1-.566-.234.8.8,0,0,1,0-1.131L1.617-.566a.8.8,0,0,1,1.131,0,.8.8,0,0,1,0,1.131L.566,2.748A.8.8,0,0,1,0,2.983Z" transform="translate(1274.124 896.775)" fill="#394553"/>
    <path id="Path_256" data-name="Path 256" d="M40.664,41.884a.8.8,0,0,1-.566-.234l-4.242-4.243a.8.8,0,0,1-.127-.965,47.992,47.992,0,0,1,20.053-19l.035-.017a2.6,2.6,0,0,1,1.067-.214,3.241,3.241,0,0,1,2.225.882l.1.1.2.2a3.135,3.135,0,0,1,.671,3.288l-.017.035a48.459,48.459,0,0,1-19,20.054A.8.8,0,0,1,40.664,41.884Zm-3.24-5.172,3.369,3.369A46.855,46.855,0,0,0,58.63,21.019a1.562,1.562,0,0,0-.348-1.487l-.206-.208-.1-.1a1.635,1.635,0,0,0-1.092-.411,1.055,1.055,0,0,0-.4.069,46.373,46.373,0,0,0-19.06,17.831Z" transform="translate(1242.033 853.554)" fill="#394553"/>
    <path id="Path_257" data-name="Path 257" d="M34.633,49.77a.8.8,0,0,1-.566-.234l-1.63-1.63a.8.8,0,0,1-.2-.806l.777-2.469,1.526.48-.631,2.006.876.875,4.735-2.419L40.25,47,35,49.682A.8.8,0,0,1,34.633,49.77Z" transform="translate(1242.687 848.416)" fill="#394553"/>
    <path id="Line_184" data-name="Line 184" d="M2.652,3.8a.8.8,0,0,1-.6-.27L-.6.53A.8.8,0,0,1-.53-.6.8.8,0,0,1,.6-.53l2.652,3a.8.8,0,0,1-.6,1.33Z" transform="translate(1292.314 870.314)" fill="#394553"/>
    <path id="Path_258" data-name="Path 258" d="M42.657,24.287a.8.8,0,0,1-.572-1.359,53.837,53.837,0,0,1,8.934-7.1.8.8,0,1,1,.842,1.36,53.224,53.224,0,0,0-8.633,6.862A.8.8,0,0,1,42.657,24.287Z" transform="translate(1240.84 853.843)" fill="#394553"/>
    <path id="Line_185" data-name="Line 185" d="M3.446,4.577-.566.566.566-.566,4.578,3.445Z" transform="translate(1291.322 880.011)" fill="#394553"/>
    <path id="Path_259" data-name="Path 259" d="M35.5,50.786H1.25a.8.8,0,0,1-.8-.8V4.456a.8.8,0,0,1,.8-.8H4.405v1.6H2.05V49.186H34.7V42.413h1.6v7.573A.8.8,0,0,1,35.5,50.786Z" transform="translate(1248.761 856.147)" fill="#394553"/>
    <path id="Path_260" data-name="Path 260" d="M37.809,14.605h-1.6V5.257H9.115v-1.6H37.009a.8.8,0,0,1,.8.8Z" transform="translate(1247.256 856.147)" fill="#394553"/>
    <path id="Line_186" data-name="Line 186" d="M0,5.976a.8.8,0,0,1-.8-.8V0A.8.8,0,0,1,0-.8.8.8,0,0,1,.8,0V5.176A.8.8,0,0,1,0,5.976Z" transform="translate(1256.18 858.011)" fill="#394553"/>
    <path id="Line_187" data-name="Line 187" d="M0,5.976a.8.8,0,0,1-.8-.8V0A.8.8,0,0,1,0-.8.8.8,0,0,1,.8,0V5.176A.8.8,0,0,1,0,5.976Z" transform="translate(1261.659 858.011)" fill="#394553"/>
    <path id="Line_188" data-name="Line 188" d="M0,5.976a.8.8,0,0,1-.8-.8V0A.8.8,0,0,1,0-.8.8.8,0,0,1,.8,0V5.176A.8.8,0,0,1,0,5.976Z" transform="translate(1267.138 858.011)" fill="#394553"/>
    <path id="Line_189" data-name="Line 189" d="M0,5.976a.8.8,0,0,1-.8-.8V0A.8.8,0,0,1,0-.8.8.8,0,0,1,.8,0V5.176A.8.8,0,0,1,0,5.976Z" transform="translate(1272.617 858.011)" fill="#394553"/>
    <path id="Line_190" data-name="Line 190" d="M0,5.976a.8.8,0,0,1-.8-.8V0A.8.8,0,0,1,0-.8.8.8,0,0,1,.8,0V5.176A.8.8,0,0,1,0,5.976Z" transform="translate(1278.096 858.011)" fill="#394553"/>
    <path id="Line_191" data-name="Line 191" d="M3.506.8H0V-.8H3.506Z" transform="translate(1250.152 867.283)" fill="#394553"/>
    <path id="Line_192" data-name="Line 192" d="M3.506.8H0V-.8H3.506Z" transform="translate(1256.245 867.283)" fill="#394553"/>
    <path id="Line_193" data-name="Line 193" d="M3.506.8H0V-.8H3.506Z" transform="translate(1262.339 867.283)" fill="#394553"/>
    <path id="Line_194" data-name="Line 194" d="M3.506.8H0V-.8H3.506Z" transform="translate(1268.432 867.283)" fill="#394553"/>
    <path id="Line_195" data-name="Line 195" d="M3.5.8H0V-.8H3.5Z" transform="translate(1274.526 867.283)" fill="#394553"/>
    <path id="Line_196" data-name="Line 196" d="M3.506.8H0V-.8H3.506Z" transform="translate(1280.619 867.283)" fill="#394553"/>
  </g>
</svg>
