<svg xmlns="http://www.w3.org/2000/svg" width="53.779" height="53.359" viewBox="0 0 53.779 53.359">
  <g id="Group_699" data-name="Group 699" transform="translate(-636.11 -597.25)">
    <path id="Path_272" data-name="Path 272" d="M47.03,42.412H.25V.25H13.1a1,1,0,1,1,0,2H2.25V40.412H47.03a5.018,5.018,0,0,0,5-5V7.25a5.018,5.018,0,0,0-5-5h-26.8a1,1,0,1,1,0-2h26.8a7.007,7.007,0,0,1,7,7V35.412A7.007,7.007,0,0,1,47.03,42.412Z" transform="translate(635.86 597)" fill="#4489ef"/>
    <path id="Path_273" data-name="Path 273" d="M27.141,35.578a19.756,19.756,0,0,1-5.914-.893l.6-1.909a17.759,17.759,0,0,0,5.316.8,16.971,16.971,0,0,0,9-2.486A12.717,12.717,0,0,0,41.415,24.9l1.874.7a13.475,13.475,0,0,1-2.4,4.035A15.861,15.861,0,0,1,37.2,32.79,18.967,18.967,0,0,1,27.141,35.578Z" transform="translate(635.86 597)" fill="#4489ef"/>
    <path id="Path_274" data-name="Path 274" d="M12.727,18.1l-1.9-.627a14.521,14.521,0,0,1,6.035-7.507A18.907,18.907,0,0,1,27.14,7.036a19.677,19.677,0,0,1,6.226.994l-.632,1.9a17.681,17.681,0,0,0-5.594-.892C20.414,9.036,14.487,12.761,12.727,18.1Z" transform="translate(635.86 597)" fill="#4489ef"/>
    <path id="Path_275" data-name="Path 275" d="M10.578,34.861q-.04,0-.081,0A1,1,0,0,1,9.58,33.78l.933-11.6a1,1,0,0,1,.626-.848l.005,0a1,1,0,0,1,1.035.18l8.706,7.719a1,1,0,0,1-1.327,1.5l-7.211-6.393-.773,9.606A1,1,0,0,1,10.578,34.861Z" transform="translate(635.86 597)" fill="#4489ef"/>
    <path id="Line_205" data-name="Line 205" d="M.373,3.86-.373,2,6.912-.928,7.658.928Z" transform="translate(646.675 625.089)" fill="#4489ef"/>
    <path id="Path_276" data-name="Path 276" d="M40.2,22.164a6.3,6.3,0,1,1,2.468-12.106,1,1,0,1,1-.782,1.841,4.3,4.3,0,1,0,2.274,5.645,1,1,0,0,1,1.84.784,6.317,6.317,0,0,1-5.8,3.836Z" transform="translate(635.86 597)" fill="#4489ef"/>
    <path id="Line_206" data-name="Line 206" d="M3.973,10.87a1,1,0,0,1-.928-.627L-.928.373a1,1,0,0,1,.554-1.3,1,1,0,0,1,1.3.554L4.9,9.5a1,1,0,0,1-.927,1.374Z" transform="translate(657.295 614.699)" fill="#4489ef"/>
    <path id="Path_277" data-name="Path 277" d="M23.783,23.475l-.745-1.856,4.2-1.687a1.5,1.5,0,0,0,.828-1.945l-.092-.227a1.5,1.5,0,0,0-1.947-.833l-4.225,1.7-.747-1.855,4.225-1.7a3.5,3.5,0,0,1,4.547,1.939l.092.227a3.5,3.5,0,0,1-1.936,4.55Z" transform="translate(635.86 597)" fill="#4489ef"/>
    <path id="Path_278" data-name="Path 278" d="M25.8,28.481l-.745-1.856,4.2-1.687a1.535,1.535,0,0,0,.8-2.013l-.1-.239a1.592,1.592,0,0,0-.857-.879,1.447,1.447,0,0,0-1.115-.02l-.748-1.855a3.433,3.433,0,0,1,2.647.034,3.579,3.579,0,0,1,1.929,1.973l.1.239A3.537,3.537,0,0,1,30,26.794Z" transform="translate(635.86 597)" fill="#4489ef"/>
    <path id="Path_279" data-name="Path 279" d="M47.029,48.192H.25V41.375h2v4.817H47.029a5.019,5.019,0,0,0,5-5V35.584h2v5.608A7.008,7.008,0,0,1,47.029,48.192Z" transform="translate(635.86 597)" fill="#4489ef"/>
    <path id="Path_280" data-name="Path 280" d="M47.029,53.609H.25V47.193h2v4.416H47.029a5.018,5.018,0,0,0,5-5V40.721h2v5.888A7.008,7.008,0,0,1,47.029,53.609Z" transform="translate(635.86 597)" fill="#4489ef"/>
  </g>
</svg>
