<svg xmlns="http://www.w3.org/2000/svg" width="21.002" height="21.266" viewBox="0 0 21.002 21.266">
  <g id="Group_691" data-name="Group 691" transform="translate(-337.667 -2519.773)">
    <path id="Path_310" data-name="Path 310" d="M20.1,25.322H2.4A1.657,1.657,0,0,1,.75,23.668V7.78A1.657,1.657,0,0,1,2.4,6.125H5.582v1H2.4a.655.655,0,0,0-.655.655V23.668a.655.655,0,0,0,.655.655H20.1a.655.655,0,0,0,.655-.655V7.78a.655.655,0,0,0-.655-.655H17.861v-1H20.1A1.657,1.657,0,0,1,21.752,7.78V23.668A1.657,1.657,0,0,1,20.1,25.322Z" transform="translate(336.917 2515.717)" fill="#5e6d83"/>
    <path id="Line_240" data-name="Line 240" d="M2.875.5H0v-1H2.875Z" transform="translate(349.726 2522.343)" fill="#5e6d83"/>
    <path id="Line_241" data-name="Line 241" d="M2.875.5H0v-1H2.875Z" transform="translate(344.674 2522.343)" fill="#5e6d83"/>
    <path id="Line_242" data-name="Line 242" d="M19.932.5H0v-1H19.932Z" transform="translate(338.202 2527.829)" fill="#5e6d83"/>
    <path id="Line_243" data-name="Line 243" d="M0,4.981a.5.5,0,0,1-.5-.5V0A.5.5,0,0,1,0-.5.5.5,0,0,1,.5,0V4.481A.5.5,0,0,1,0,4.981Z" transform="translate(342.577 2520.273)" fill="#5e6d83"/>
    <path id="Line_244" data-name="Line 244" d="M0,4.981a.5.5,0,0,1-.5-.5V0A.5.5,0,0,1,0-.5.5.5,0,0,1,.5,0V4.481A.5.5,0,0,1,0,4.981Z" transform="translate(352.681 2520.273)" fill="#5e6d83"/>
    <path id="Line_245" data-name="Line 245" d="M0,4.981a.5.5,0,0,1-.5-.5V0A.5.5,0,0,1,0-.5.5.5,0,0,1,.5,0V4.481A.5.5,0,0,1,0,4.981Z" transform="translate(347.629 2520.273)" fill="#5e6d83"/>
    <path id="Rectangle_241" data-name="Rectangle 241" d="M-.5-.5H.831V.831H-.5Z" transform="translate(344.929 2533.946)" fill="#5e6d83"/>
    <path id="Rectangle_243" data-name="Rectangle 243" d="M-.5-.5H.831V.831H-.5Z" transform="translate(341.855 2533.946)" fill="#5e6d83"/>
    <path id="Rectangle_245" data-name="Rectangle 245" d="M-.5-.5H.831V.831H-.5Z" transform="translate(348.003 2533.946)" fill="#5e6d83"/>
    <path id="Rectangle_247" data-name="Rectangle 247" d="M-.5-.5H.831V.831H-.5Z" transform="translate(351.077 2533.946)" fill="#5e6d83"/>
    <path id="Rectangle_249" data-name="Rectangle 249" d="M-.5-.5H.831V.831H-.5Z" transform="translate(354.151 2533.946)" fill="#5e6d83"/>
    <path id="Rectangle_251" data-name="Rectangle 251" d="M-.5-.5H.831V.831H-.5Z" transform="translate(344.929 2530.873)" fill="#5e6d83"/>
    <path id="Rectangle_253" data-name="Rectangle 253" d="M-.5-.5H.831V.831H-.5Z" transform="translate(348.003 2530.873)" fill="#5e6d83"/>
    <path id="Rectangle_255" data-name="Rectangle 255" d="M-.5-.5H.831V.831H-.5Z" transform="translate(351.077 2530.873)" fill="#5e6d83"/>
    <path id="Rectangle_257" data-name="Rectangle 257" d="M-.5-.5H.831V.831H-.5Z" transform="translate(354.151 2530.873)" fill="#5e6d83"/>
    <path id="Rectangle_259" data-name="Rectangle 259" d="M-.5-.5H.831V.831H-.5Z" transform="translate(344.929 2537.019)" fill="#5e6d83"/>
    <path id="Rectangle_261" data-name="Rectangle 261" d="M-.5-.5H.831V.831H-.5Z" transform="translate(341.855 2537.019)" fill="#5e6d83"/>
    <path id="Rectangle_263" data-name="Rectangle 263" d="M-.5-.5H.831V.831H-.5Z" transform="translate(348.003 2537.019)" fill="#5e6d83"/>
    <path id="Rectangle_265" data-name="Rectangle 265" d="M-.5-.5H.831V.831H-.5Z" transform="translate(351.077 2537.019)" fill="#5e6d83"/>
  </g>
</svg>
