<svg xmlns="http://www.w3.org/2000/svg" width="57.65" height="53.213" viewBox="0 0 57.65 53.213">
  <g id="Group_700" data-name="Group 700" transform="translate(-157.539 -597.25)">
    <path id="Path_284" data-name="Path 284" d="M2.136,45.168h54l1.825,8.295H.311Zm52.392,2H3.743L2.8,51.463H55.473Z" transform="translate(157.228 597)" fill="#4489ef"/>
    <path id="Line_218" data-name="Line 218" d="M24.35,1H0V-1H24.35Z" transform="translate(189.213 604.724)" fill="#4489ef"/>
    <path id="Line_219" data-name="Line 219" d="M9.729,1H0V-1H9.729Z" transform="translate(159.013 604.724)" fill="#4489ef"/>
    <path id="Line_220" data-name="Line 220" d="M0,5.507a1,1,0,0,1-1-1V0A1,1,0,0,1,0-1,1,1,0,0,1,1,0V4.507A1,1,0,0,1,0,5.507Z" transform="translate(173.029 602.47)" fill="#4489ef"/>
    <path id="Line_221" data-name="Line 221" d="M0,5.507a1,1,0,0,1-1-1V0A1,1,0,0,1,0-1,1,1,0,0,1,1,0V4.507A1,1,0,0,1,0,5.507Z" transform="translate(179.023 602.47)" fill="#4489ef"/>
    <path id="Line_222" data-name="Line 222" d="M0,5.507a1,1,0,0,1-1-1V0A1,1,0,0,1,0-1,1,1,0,0,1,1,0V4.507A1,1,0,0,1,0,5.507Z" transform="translate(184.996 602.47)" fill="#4489ef"/>
    <path id="Line_223" data-name="Line 223" d="M9.718,1H0V-1H9.718Z" transform="translate(203.845 618.277)" fill="#4489ef"/>
    <path id="Line_224" data-name="Line 224" d="M12.061,1H0V-1H12.061Z" transform="translate(183.233 618.277)" fill="#4489ef"/>
    <path id="Line_225" data-name="Line 225" d="M9.729,1H0V-1H9.729Z" transform="translate(159.013 618.277)" fill="#4489ef"/>
    <path id="Line_226" data-name="Line 226" d="M0,5.507a1,1,0,0,1-1-1V0A1,1,0,0,1,0-1,1,1,0,0,1,1,0V4.507A1,1,0,0,1,0,5.507Z" transform="translate(199.546 616.023)" fill="#4489ef"/>
    <path id="Line_227" data-name="Line 227" d="M9.653,1H0V-1H9.653Z" transform="translate(203.91 631.806)" fill="#4489ef"/>
    <path id="Line_228" data-name="Line 228" d="M24.343,1H0V-1H24.343Z" transform="translate(159.012 631.806)" fill="#4489ef"/>
    <path id="Line_229" data-name="Line 229" d="M0,40.867a1,1,0,0,1-1-1V0A1,1,0,0,1,0-1,1,1,0,0,1,1,0V39.867A1,1,0,0,1,0,40.867Z" transform="translate(163.865 598.25)" fill="#4489ef"/>
    <path id="Line_230" data-name="Line 230" d="M0,45.612a1,1,0,0,1-1-1V0A1,1,0,0,1,0-1,1,1,0,0,1,1,0V44.612A1,1,0,0,1,0,45.612Z" transform="translate(208.833 598.25)" fill="#4489ef"/>
    <path id="Line_231" data-name="Line 231" d="M0,5.507a1,1,0,0,1-1-1V0A1,1,0,0,1,0-1,1,1,0,0,1,1,0V4.507A1,1,0,0,1,0,5.507Z" transform="translate(187.58 629.552)" fill="#4489ef"/>
    <path id="Line_232" data-name="Line 232" d="M0,5.507a1,1,0,0,1-1-1V0A1,1,0,0,1,0-1,1,1,0,0,1,1,0V4.507A1,1,0,0,1,0,5.507Z" transform="translate(193.574 629.552)" fill="#4489ef"/>
    <path id="Line_233" data-name="Line 233" d="M0,5.507a1,1,0,0,1-1-1V0A1,1,0,0,1,0-1,1,1,0,0,1,1,0V4.507A1,1,0,0,1,0,5.507Z" transform="translate(199.546 629.552)" fill="#4489ef"/>
    <path id="Line_234" data-name="Line 234" d="M0,5.507a1,1,0,0,1-1-1V0A1,1,0,0,1,0-1,1,1,0,0,1,1,0V4.507A1,1,0,0,1,0,5.507Z" transform="translate(173.029 616.023)" fill="#4489ef"/>
    <path id="Line_235" data-name="Line 235" d="M0,5.507a1,1,0,0,1-1-1V0A1,1,0,0,1,0-1,1,1,0,0,1,1,0V4.507A1,1,0,0,1,0,5.507Z" transform="translate(179.023 616.023)" fill="#4489ef"/>
  </g>
</svg>
