<svg xmlns="http://www.w3.org/2000/svg" width="178.712" height="147.023" viewBox="0 0 178.712 147.023">
  <g id="Group_710" data-name="Group 710" transform="translate(-881.646 -6807.502)">
    <path id="Line_263" data-name="Line 263" d="M61.218.6H0V-.6H61.218Z" transform="translate(903.716 6867.62)" fill="#4489ef"/>
    <path id="Line_264" data-name="Line 264" d="M61.218.6H0V-.6H61.218Z" transform="translate(903.716 6884.058)" fill="#4489ef"/>
    <path id="Line_265" data-name="Line 265" d="M33.817.6H0V-.6H33.817Z" transform="translate(903.715 6900.498)" fill="#4489ef"/>
    <path id="Path_339" data-name="Path 339" d="M113,111a.6.6,0,0,1-.457-.211L87.1,80.928H72.458v-1.2H87.379a.6.6,0,0,1,.457.211L112.4,108.772l0-28.444a.6.6,0,0,1,.6-.6h7A13.8,13.8,0,0,0,133.77,65.969V15.612A13.8,13.8,0,0,0,120.009,1.85H44.571A13.8,13.8,0,0,0,30.809,15.612v11.15h-1.2V15.612A14.784,14.784,0,0,1,30.79,9.8a15.1,15.1,0,0,1,7.969-7.969A14.783,14.783,0,0,1,44.571.65h75.438a14.787,14.787,0,0,1,5.813,1.181A15.095,15.095,0,0,1,133.79,9.8a14.787,14.787,0,0,1,1.18,5.811V65.969a14.784,14.784,0,0,1-1.18,5.811,15.091,15.091,0,0,1-7.969,7.968,14.791,14.791,0,0,1-5.812,1.18h-6.4l0,29.473a.6.6,0,0,1-.6.6Z" transform="translate(925.388 6806.853)" fill="#4489ef"/>
    <path id="Path_340" data-name="Path 340" d="M22.618,125.479a.6.6,0,0,1-.6-.6l0-29.473H15.607A14.775,14.775,0,0,1,9.8,94.225,15.1,15.1,0,0,1,1.83,86.256,14.788,14.788,0,0,1,.65,80.444V30.09a14.788,14.788,0,0,1,1.18-5.811A15.1,15.1,0,0,1,9.8,16.309a14.775,14.775,0,0,1,5.81-1.181H91.05a14.777,14.777,0,0,1,5.81,1.181,15.1,15.1,0,0,1,7.968,7.969,14.784,14.784,0,0,1,1.181,5.811V80.444a14.784,14.784,0,0,1-1.181,5.811,15.1,15.1,0,0,1-7.968,7.969,14.777,14.777,0,0,1-5.81,1.181H61.318a.6.6,0,0,1,0-1.2H91.05a13.8,13.8,0,0,0,13.759-13.762V30.09A13.8,13.8,0,0,0,91.05,16.328H15.607A13.8,13.8,0,0,0,1.85,30.09V80.444A13.8,13.8,0,0,0,15.607,94.206h7.009a.6.6,0,0,1,.6.6l0,28.408L47.059,94.423a.6.6,0,0,1,.924.765l-24.9,30.073A.6.6,0,0,1,22.618,125.479Z" transform="translate(880.996 6829.046)" fill="#4489ef"/>
    <path id="Path_341" data-name="Path 341" d="M51,20.564a2.573,2.573,0,1,1,2.573-2.573A2.577,2.577,0,0,1,51,20.564Zm0-3.946a1.373,1.373,0,1,0,1.373,1.373A1.376,1.376,0,0,0,51,16.618Z" transform="translate(954.237 6829.491)" fill="#4489ef"/>
    <path id="Path_342" data-name="Path 342" d="M51,20.564a2.573,2.573,0,1,1,2.573-2.573A2.577,2.577,0,0,1,51,20.564Zm0-3.946a1.373,1.373,0,1,0,1.373,1.373A1.376,1.376,0,0,0,51,16.618Z" transform="translate(954.237 6829.491)" fill="#4489ef"/>
    <path id="Path_343" data-name="Path 343" d="M59.419,20.564a2.573,2.573,0,1,1,2.573-2.573A2.577,2.577,0,0,1,59.419,20.564Zm0-3.946a1.373,1.373,0,1,0,1.373,1.373A1.376,1.376,0,0,0,59.419,16.618Z" transform="translate(967.135 6829.491)" fill="#4489ef"/>
  </g>
</svg>
