<svg xmlns="http://www.w3.org/2000/svg" width="31.098" height="32.04" viewBox="0 0 31.098 32.04">
  <g id="Group_702" data-name="Group 702" transform="translate(-915.4 -512.096)">
    <path id="Line_266" data-name="Line 266" d="M17.624.6H0V-.6H17.624Z" transform="translate(922.137 519.25)" fill="#4489ef"/>
    <path id="Line_267" data-name="Line 267" d="M17.624.6H0V-.6H17.624Z" transform="translate(922.137 523.982)" fill="#4489ef"/>
    <path id="Line_268" data-name="Line 268" d="M9.736.6H0V-.6H9.736Z" transform="translate(922.137 528.714)" fill="#4489ef"/>
    <path id="Path_345" data-name="Path 345" d="M7.926,32.69a.6.6,0,0,1-.6-.6V24.447H4.043A3.4,3.4,0,0,1,.65,21.053V4.044A3.4,3.4,0,0,1,4.043.65H28.354a3.4,3.4,0,0,1,3.393,3.394V21.053a3.4,3.4,0,0,1-3.393,3.395H19.233a.6.6,0,0,1,0-1.2h9.122a2.2,2.2,0,0,0,2.193-2.195V4.044A2.2,2.2,0,0,0,28.354,1.85H4.043A2.2,2.2,0,0,0,1.85,4.044V21.053a2.2,2.2,0,0,0,2.193,2.195H7.926a.6.6,0,0,1,.6.6v6.677l6.358-7.078a.6.6,0,0,1,.893.8l-7.4,8.243A.6.6,0,0,1,7.926,32.69Z" transform="translate(914.75 511.446)" fill="#4489ef"/>
  </g>
</svg>
