<svg xmlns="http://www.w3.org/2000/svg" width="52.234" height="43.159" viewBox="0 0 52.234 43.159">
  <g id="Group_694" data-name="Group 694" transform="translate(-689.3 -2617.3)">
    <path id="Line_263" data-name="Line 263" d="M17.531.7H0V-.7H17.531Z" transform="translate(696.148 2635.044)" fill="#1c3150"/>
    <path id="Line_264" data-name="Line 264" d="M17.531.7H0V-.7H17.531Z" transform="translate(696.148 2639.751)" fill="#1c3150"/>
    <path id="Line_265" data-name="Line 265" d="M9.684.7H0V-.7H9.684Z" transform="translate(696.148 2644.459)" fill="#1c3150"/>
    <path id="Path_339" data-name="Path 339" d="M53.918,33.207a.7.7,0,0,1-.533-.246L46.258,24.6h-3.95V23.2h4.273a.7.7,0,0,1,.533.246l6.1,7.165V23.9a.7.7,0,0,1,.7-.7h2.006a3.416,3.416,0,0,0,3.413-3.412V5.363A3.417,3.417,0,0,0,55.925,1.95h-21.6a3.417,3.417,0,0,0-3.413,3.413V8.556h-1.4V5.363A4.818,4.818,0,0,1,34.322.55h21.6a4.818,4.818,0,0,1,4.813,4.813V19.783A4.818,4.818,0,0,1,55.925,24.6H54.619v7.912a.7.7,0,0,1-.7.7Z" transform="translate(680.796 2616.75)" fill="#1c3150"/>
    <path id="Path_340" data-name="Path 340" d="M7.369,47.685a.7.7,0,0,1-.7-.7V39.073H5.361A4.817,4.817,0,0,1,.55,34.261V19.841a4.817,4.817,0,0,1,4.811-4.813h21.6a4.818,4.818,0,0,1,4.812,4.813v14.42a4.818,4.818,0,0,1-4.812,4.813H18.452a.7.7,0,1,1,0-1.4h8.514a3.416,3.416,0,0,0,3.412-3.413V19.841a3.416,3.416,0,0,0-3.412-3.413H5.361A3.416,3.416,0,0,0,1.95,19.841v14.42a3.416,3.416,0,0,0,3.411,3.413H7.368a.7.7,0,0,1,.7.7v6.669l5.893-7.116a.7.7,0,1,1,1.078.893L7.908,47.432A.7.7,0,0,1,7.369,47.685Z" transform="translate(688.75 2612.773)" fill="#1c3150"/>
    <path id="Path_342" data-name="Path 342" d="M49.595,15.318a1.265,1.265,0,1,1-1.266,1.265A1.266,1.266,0,0,1,49.595,15.318Z" transform="translate(675.627 2612.694)" fill="#1c3150"/>
    <path id="Path_344" data-name="Path 344" d="M58.009,15.318a1.265,1.265,0,1,1-1.266,1.265A1.266,1.266,0,0,1,58.009,15.318Z" transform="translate(673.316 2612.694)" fill="#1c3150"/>
  </g>
</svg>
