<svg xmlns="http://www.w3.org/2000/svg" width="20.764" height="21.387" viewBox="0 0 20.764 21.387">
  <g id="Group_535" data-name="Group 535" transform="translate(-723.213 3111.129)">
    <path id="Line_266" data-name="Line 266" d="M11.65.5H0v-1H11.65Z" transform="translate(727.77 -3106.297)" fill="#5e6d83"/>
    <path id="Line_267" data-name="Line 267" d="M11.65.5H0v-1H11.65Z" transform="translate(727.77 -3103.169)" fill="#5e6d83"/>
    <path id="Line_268" data-name="Line 268" d="M6.436.5H0v-1H6.436Z" transform="translate(727.77 -3100.04)" fill="#5e6d83"/>
    <path id="Path_345" data-name="Path 345" d="M5.663,22.137a.5.5,0,0,1-.5-.5V16.688H3.1A2.35,2.35,0,0,1,.75,14.34V3.1A2.349,2.349,0,0,1,3.1.75H19.167A2.349,2.349,0,0,1,21.514,3.1V14.34a2.35,2.35,0,0,1-2.347,2.347h-6.03a.5.5,0,0,1,0-1h6.03a1.348,1.348,0,0,0,1.347-1.347V3.1A1.348,1.348,0,0,0,19.167,1.75H3.1A1.348,1.348,0,0,0,1.75,3.1V14.34A1.348,1.348,0,0,0,3.1,15.688H5.663a.5.5,0,0,1,.5.5v4.144l4.022-4.478a.5.5,0,1,1,.744.668L6.035,21.971A.5.5,0,0,1,5.663,22.137Z" transform="translate(722.463 -3111.879)" fill="#5e6d83"/>
  </g>
</svg>
