<svg xmlns="http://www.w3.org/2000/svg" width="22.595" height="29.752" viewBox="0 0 22.595 29.752">
  <g id="Group_708" data-name="Group 708" transform="translate(-352.624 -5505.5)">
    <path id="Line_257" data-name="Line 257" d="M12.048.5H0v-1H12.048Z" transform="translate(357.897 5520.229)" fill="#4489ef"/>
    <path id="Line_258" data-name="Line 258" d="M12.048.5H0v-1H12.048Z" transform="translate(357.897 5524.452)" fill="#4489ef"/>
    <path id="Line_259" data-name="Line 259" d="M12.048.5H0v-1H12.048Z" transform="translate(357.897 5528.675)" fill="#4489ef"/>
    <path id="Path_330" data-name="Path 330" d="M22.845,30.5H1.25a.5.5,0,0,1-.5-.5V6.828A.5.5,0,0,1,.9,6.475L6.476.9A.5.5,0,0,1,6.83.75H22.845a.5.5,0,0,1,.5.5V30A.5.5,0,0,1,22.845,30.5ZM1.75,29.5H22.345V1.75H7.037L1.75,7.035Z" transform="translate(351.874 5504.75)" fill="#4489ef"/>
    <path id="Path_331" data-name="Path 331" d="M10.922,10.963H6.607v-1H9.922V6.653h1Z" transform="translate(349.191 5502.044)" fill="#4489ef"/>
  </g>
</svg>
