<svg xmlns="http://www.w3.org/2000/svg" width="47.162" height="38.817" viewBox="0 0 47.162 38.817">
  <g id="Group_695" data-name="Group 695" transform="translate(-692.3 -2824.3)">
    <path id="Path_315" data-name="Path 315" d="M31.449,55.391a4.457,4.457,0,0,1-4.423-4.48v-1.4a4.424,4.424,0,1,1,8.846,0v1.4A4.457,4.457,0,0,1,31.449,55.391Zm0-8.96a3.055,3.055,0,0,0-3.023,3.08v1.4a3.024,3.024,0,1,0,6.046,0v-1.4A3.055,3.055,0,0,0,31.449,46.431Z" transform="translate(677.365 2796.722)" fill="#1c3150"/>
    <path id="Path_316" data-name="Path 316" d="M35.663,67.544h-1.4v-3.85a3.412,3.412,0,0,0-1.11-2.659,4.364,4.364,0,0,0-2.932-.966H23.757a.7.7,0,0,1-.243-.043,18.75,18.75,0,0,1-4.339-2.574,76.652,76.652,0,0,1-6.767-6.509c-.961,1.2-1.015,2.607.951,5.147l5.973,7.444a.7.7,0,0,1,.154.438v3.572h-1.4V64.218l-5.823-7.257-.007-.01a7.7,7.7,0,0,1-1.889-4.016,4.35,4.35,0,0,1,1.55-3.523.7.7,0,0,1,1,.027,86.774,86.774,0,0,0,7.1,6.9,18.718,18.718,0,0,0,3.871,2.333h6.329a5.734,5.734,0,0,1,3.855,1.314,4.771,4.771,0,0,1,1.587,3.711Z" transform="translate(681.943 2795.573)" fill="#1c3150"/>
    <path id="Path_317" data-name="Path 317" d="M48.181,55.391a4.457,4.457,0,0,1-4.423-4.48v-1.4a4.424,4.424,0,1,1,8.846,0v1.4A4.457,4.457,0,0,1,48.181,55.391Zm0-8.96a3.055,3.055,0,0,0-3.023,3.08v1.4a3.024,3.024,0,1,0,6.046,0v-1.4A3.055,3.055,0,0,0,48.181,46.431Z" transform="translate(672.769 2796.722)" fill="#1c3150"/>
    <path id="Path_318" data-name="Path 318" d="M57.758,71.124h-1.4v-3.85a3.411,3.411,0,0,0-1.11-2.659,4.366,4.366,0,0,0-2.932-.966h-5v-1.4h5c3.255,0,5.442,2.019,5.442,5.025Z" transform="translate(671.985 2791.993)" fill="#1c3150"/>
    <path id="Path_319" data-name="Path 319" d="M53,49.561H51.6V41.847a.7.7,0,0,1,.163-.449L60,31.544c2.03-2.626,2.043-3.977,1.123-5.137l-9.885,9.366a.7.7,0,0,1-.481.192H43.042a.7.7,0,0,1-.481-.192l-9.886-9.366c-.921,1.161-.909,2.512,1.122,5.137l6.181,7.391-1.074.9-6.189-7.4-.016-.02a8.457,8.457,0,0,1-1.981-3.964,4.075,4.075,0,0,1,1.437-3.541.7.7,0,0,1,.968,0l10.2,9.663h7.155l10.2-9.663a.7.7,0,0,1,.968,0c2.653,2.565,1.214,5.233-.545,7.5l-.016.021L53,42.1Z" transform="translate(676.359 2802.303)" fill="#1c3150"/>
    <path id="Path_320" data-name="Path 320" d="M51.353,31.33a4.457,4.457,0,0,1-4.423-4.48v-1.4a4.424,4.424,0,1,1,8.846,0v1.4A4.457,4.457,0,0,1,51.353,31.33Zm0-8.961a3.055,3.055,0,0,0-3.023,3.08v1.4a3.024,3.024,0,1,0,6.046,0v-1.4A3.055,3.055,0,0,0,51.353,22.369Z" transform="translate(671.898 2803.331)" fill="#1c3150"/>
  </g>
</svg>
