<svg xmlns="http://www.w3.org/2000/svg" width="26.19" height="22.69" viewBox="0 0 26.19 22.69">
  <g id="Group_550" data-name="Group 550" transform="translate(0.6 0.6)">
    <path id="Path_306" data-name="Path 306" d="M21.684,12.826a.6.6,0,0,1-.517-.3,4.665,4.665,0,0,1-.582-2.31,4.341,4.341,0,0,1,.526-2.2,2.23,2.23,0,0,1,.766-.8.6.6,0,0,1,.616,1.03,1.071,1.071,0,0,0-.348.381,3.14,3.14,0,0,0-.36,1.582,3.457,3.457,0,0,0,.416,1.708.6.6,0,0,1-.516.9Z" transform="translate(-17.366 -3.765)" fill="#1c3150"/>
    <path id="Path_307" data-name="Path 307" d="M27.44,23.34a.6.6,0,0,1-.424-.175L16.446,12.609a7.115,7.115,0,0,1-2.1-4.988A6.858,6.858,0,0,1,21.248.65a7.107,7.107,0,0,1,5.058,2.1L27.438,3.88,28.58,2.747A7.107,7.107,0,0,1,33.637.65a6.858,6.858,0,0,1,6.9,6.971,7.116,7.116,0,0,1-2.1,4.988L27.864,23.165A.6.6,0,0,1,27.44,23.34ZM21.248,1.85a5.658,5.658,0,0,0-5.7,5.759,5.922,5.922,0,0,0,1.746,4.151L27.44,21.893,37.591,11.759a5.922,5.922,0,0,0,1.746-4.151,5.659,5.659,0,0,0-5.7-5.759A5.916,5.916,0,0,0,29.427,3.6L27.859,5.153a.6.6,0,0,1-.847,0L25.457,3.6A5.915,5.915,0,0,0,21.248,1.85Z" transform="translate(-14.947 -1.25)" fill="#1c3150"/>
  </g>
</svg>
