<svg xmlns="http://www.w3.org/2000/svg" width="18.043" height="15.685" viewBox="0 0 18.043 15.685">
  <g id="Group_697" data-name="Group 697" transform="translate(-1099.4 -2135.4)">
    <path id="Path_306" data-name="Path 306" d="M21.684,10.768a.6.6,0,0,1-.406-.158,2.086,2.086,0,0,1-.693-1.524,1.945,1.945,0,0,1,.637-1.472A2.092,2.092,0,0,1,22,7.165a.6.6,0,0,1,.37,1.142.9.9,0,0,0-.336.191.75.75,0,0,0-.249.575.9.9,0,0,0,.3.653.6.6,0,0,1-.406,1.042Z" transform="translate(1081.815 2131.264)" fill="#4489ef"/>
    <path id="Path_307" data-name="Path 307" d="M23.368,16.335a.6.6,0,0,1-.424-.175L15.819,9.044a4.99,4.99,0,0,1-1.472-3.5A4.818,4.818,0,0,1,19.194.65a4.984,4.984,0,0,1,3.547,1.472l.625.625L24,2.12A4.984,4.984,0,0,1,27.544.65a4.818,4.818,0,0,1,4.846,4.9,4.991,4.991,0,0,1-1.471,3.5l-7.128,7.115A.6.6,0,0,1,23.368,16.335ZM19.194,1.85a3.618,3.618,0,0,0-3.646,3.684A3.8,3.8,0,0,0,16.667,8.2l6.7,6.691,6.7-6.692A3.8,3.8,0,0,0,31.19,5.534,3.618,3.618,0,0,0,27.544,1.85a3.793,3.793,0,0,0-2.7,1.12L23.788,4.02a.6.6,0,0,1-.847,0L21.893,2.97A3.792,3.792,0,0,0,19.194,1.85Z" transform="translate(1085.053 2134.75)" fill="#4489ef"/>
  </g>
</svg>
