<svg xmlns="http://www.w3.org/2000/svg" width="20.577" height="20.531" viewBox="0 0 20.577 20.531">
  <path id="Path_8" data-name="Path 8" d="M637.5,262.272v10.059h4.823V258.644h-4.777v3.629Zm20.44.551c-.322-2.572-1.516-4.226-5.007-4.226-2.067,0-3.445.735-4,1.837h-.046V258.6h-3.812v13.688h4v-6.8c0-1.791.367-3.491,2.526-3.491,2.2,0,2.388,2.021,2.388,3.629v6.66h4.088v-7.533q-.069-1.033-.138-1.929ZM639.888,251.8a2.388,2.388,0,1,0,2.388,2.388,2.344,2.344,0,0,0-2.388-2.388Z" transform="translate(-637.5 -251.8)" fill="#1c3150" fill-rule="evenodd"/>
</svg>
