<svg xmlns="http://www.w3.org/2000/svg" width="19" height="19" viewBox="0 0 19 19">
  <g id="Group_138" data-name="Group 138" transform="translate(-328 -973)">
    <path id="Path_144" data-name="Path 144" d="M1.178.925V-7.445H2.365V.925Zm.59-9.66A.859.859,0,0,1,1.138-9a.844.844,0,0,1-.263-.616.876.876,0,0,1,.263-.635.851.851,0,0,1,.63-.268.847.847,0,0,1,.626.268.876.876,0,0,1,.263.635A.844.844,0,0,1,2.394-9,.855.855,0,0,1,1.768-8.735Z" transform="translate(335.876 987.517)" fill="#5e6d83"/>
    <path id="Ellipse_4" data-name="Ellipse 4" d="M9.5,1A8.5,8.5,0,1,0,18,9.5,8.51,8.51,0,0,0,9.5,1m0-1A9.5,9.5,0,1,1,0,9.5,9.5,9.5,0,0,1,9.5,0Z" transform="translate(328 973)" fill="#5e6d83"/>
  </g>
</svg>
