<svg id="t0zKct.tif_1_" xmlns="http://www.w3.org/2000/svg" width="23.103" height="23.104" viewBox="0 0 23.103 23.104">
  <g id="Group_2" data-name="Group 2" transform="translate(0 0)">
    <path id="Path_37" data-name="Path 37" d="M0,11.551V6.593A6.5,6.5,0,0,1,4.861.24,7.159,7.159,0,0,1,6.594,0c3.273,0,6.546.048,9.771,0A6.606,6.606,0,0,1,23.1,6.593V16.653a6.459,6.459,0,0,1-5.391,6.353,9.4,9.4,0,0,1-1.107.1H6.45A6.533,6.533,0,0,1,0,16.556Zm2.214,0v4.958a2.343,2.343,0,0,0,.048.578A4.323,4.323,0,0,0,6.594,20.84h9.963a6.523,6.523,0,0,0,.963-.1,4.284,4.284,0,0,0,3.417-4.236V6.593a2.343,2.343,0,0,0-.048-.578,4.325,4.325,0,0,0-4.332-3.8H6.642a4.335,4.335,0,0,0-4.38,4.38C2.214,8.23,2.214,9.914,2.214,11.551Z" transform="translate(0 0.001)" fill="#1c3150"/>
    <path id="Path_38" data-name="Path 38" d="M23.533,17.516A6.016,6.016,0,1,1,17.516,11.5,6.019,6.019,0,0,1,23.533,17.516Zm-6.016-3.8a3.8,3.8,0,0,0-.048,7.6,3.8,3.8,0,0,0,.048-7.6Z" transform="translate(-5.965 -5.964)" fill="#1c3150"/>
    <path id="Path_39" data-name="Path 39" d="M35.3,11.192a1.4,1.4,0,1,1,1.348-1.444A1.369,1.369,0,0,1,35.3,11.192Z" transform="translate(-17.583 -4.356)" fill="#1c3150"/>
  </g>
</svg>
