<svg xmlns="http://www.w3.org/2000/svg" width="22.403" height="21.167" viewBox="0 0 22.403 21.167">
  <g id="Group_534" data-name="Group 534" transform="translate(-815.767 2891.25)">
    <path id="Path_355" data-name="Path 355" d="M24.584,21.047H13.445v-1H24.584a1.449,1.449,0,0,0,1.462-1.13c.063-.319,1.534-7.774,1.614-8.254A2.309,2.309,0,0,0,27.6,9.288a1.03,1.03,0,0,0-.988-.47H20.67l.362-.724a11.208,11.208,0,0,0,.646-5.21V2.874a1.26,1.26,0,0,0-.4-.893,1.164,1.164,0,0,0-.746-.23l-.025,0h-.025a.915.915,0,0,0-.824.37,1.064,1.064,0,0,0-.162.417,7.058,7.058,0,0,1-2.451,5.521A9.144,9.144,0,0,1,13.721,9.88l-.286-.958C14.623,8.567,18.5,7.057,18.5,2.511l0-.039A1.879,1.879,0,0,1,20.463.754a2.141,2.141,0,0,1,1.452.454,2.21,2.21,0,0,1,.756,1.565,13.067,13.067,0,0,1-.443,5.045H26.6a1.979,1.979,0,0,1,1.858.964,3.11,3.11,0,0,1,.186,2.045c-.084.5-1.558,7.975-1.621,8.292l0,.018A2.456,2.456,0,0,1,24.584,21.047Z" transform="translate(809.436 -2892)" fill="#5e6d83"/>
    <path id="Rectangle_286" data-name="Rectangle 286" d="M-.5-.5H4.893V12.873H-.5ZM3.893.5H.5V11.873H3.893Z" transform="translate(816.267 -2882.957)" fill="#5e6d83"/>
  </g>
</svg>
