<svg xmlns="http://www.w3.org/2000/svg" width="22.895" height="20" viewBox="0 0 22.895 20">
  <g id="Group_576" data-name="Group 576" transform="translate(-806.605 -524.5)">
    <path id="Line_279" data-name="Line 279" d="M18.895,2H0A2,2,0,0,1-2,0,2,2,0,0,1,0-2H18.895a2,2,0,0,1,2,2A2,2,0,0,1,18.895,2Z" transform="translate(808.605 526.5)" fill="#4489ef"/>
    <path id="Line_280" data-name="Line 280" d="M18.895,2H0A2,2,0,0,1-2,0,2,2,0,0,1,0-2H18.895a2,2,0,0,1,2,2A2,2,0,0,1,18.895,2Z" transform="translate(808.605 534.5)" fill="#4489ef"/>
    <path id="Line_281" data-name="Line 281" d="M18.895,2H0A2,2,0,0,1-2,0,2,2,0,0,1,0-2H18.895a2,2,0,0,1,2,2A2,2,0,0,1,18.895,2Z" transform="translate(808.605 542.5)" fill="#4489ef"/>
  </g>
</svg>
