<svg xmlns="http://www.w3.org/2000/svg" width="23.271" height="23.627" viewBox="0 0 23.271 23.627">
  <g id="Group_553" data-name="Group 553" transform="translate(-1456.165 -62.165)">
    <path id="Path_326" data-name="Path 326" d="M11.392,21.32A10.556,10.556,0,0,1,.65,10.987,10.557,10.557,0,0,1,11.392.65a10.9,10.9,0,0,1,7.592,3.019,10.058,10.058,0,0,1,0,14.634A10.9,10.9,0,0,1,11.392,21.32Zm0-19.47A9.357,9.357,0,0,0,1.85,10.987a9.355,9.355,0,0,0,9.542,9.133,9.359,9.359,0,0,0,9.549-9.133A9.36,9.36,0,0,0,11.392,1.85Z" transform="translate(1455.515 61.515)" fill="#1c3150"/>
    <path id="Line_251" data-name="Line 251" d="M5.291,6.07a.6.6,0,0,1-.431-.183L-.431.417A.6.6,0,0,1-.417-.431a.6.6,0,0,1,.848.014l5.291,5.47A.6.6,0,0,1,5.291,6.07Z" transform="translate(1473.545 79.722)" fill="#1c3150"/>
  </g>
</svg>
