<svg xmlns="http://www.w3.org/2000/svg" width="23.418" height="12.277" viewBox="0 0 23.418 12.277">
  <g id="Group_706" data-name="Group 706" transform="translate(-348.862 -1257.861)">
    <path id="Path_346" data-name="Path 346" d="M36.164,13.027H22.112a.5.5,0,0,1,0-1H36.164a.529.529,0,0,0,.488-.424l1.309-9.35L30.374,7.736a.5.5,0,0,1-.632-.037l-6.6-6.08A.5.5,0,0,1,23.48.75H37.743a1.231,1.231,0,0,1,1.238,1.423l-1.339,9.569A1.519,1.519,0,0,1,36.164,13.027ZM24.761,1.75l5.358,4.936,6.83-4.936Z" transform="translate(333.285 1257.111)" fill="#4489ef"/>
    <path id="Line_269" data-name="Line 269" d="M4.093.5H0A.5.5,0,0,1-.5,0,.5.5,0,0,1,0-.5H4.093a.5.5,0,0,1,.5.5A.5.5,0,0,1,4.093.5Z" transform="translate(355.414 1266.672)" fill="#4489ef"/>
    <path id="Line_270" data-name="Line 270" d="M6.473.5H0A.5.5,0,0,1-.5,0,.5.5,0,0,1,0-.5H6.473a.5.5,0,0,1,.5.5A.5.5,0,0,1,6.473.5Z" transform="translate(351.683 1264.125)" fill="#4489ef"/>
    <path id="Line_271" data-name="Line 271" d="M1.016.5H0A.5.5,0,0,1-.5,0,.5.5,0,0,1,0-.5H1.016a.5.5,0,0,1,.5.5A.5.5,0,0,1,1.016.5Z" transform="translate(349.362 1264.125)" fill="#4489ef"/>
    <path id="Line_272" data-name="Line 272" d="M1.015.5H0A.5.5,0,0,1-.5,0,.5.5,0,0,1,0-.5H1.015a.5.5,0,0,1,.5.5A.5.5,0,0,1,1.015.5Z" transform="translate(353.097 1266.672)" fill="#4489ef"/>
    <path id="Line_273" data-name="Line 273" d="M.422.5H0A.5.5,0,0,1-.5,0,.5.5,0,0,1,0-.5H.422a.5.5,0,0,1,.5.5A.5.5,0,0,1,.422.5Z" transform="translate(351.374 1266.672)" fill="#4489ef"/>
    <path id="Line_274" data-name="Line 274" d="M4.044.5H0A.5.5,0,0,1-.5,0,.5.5,0,0,1,0-.5H4.044a.5.5,0,0,1,.5.5A.5.5,0,0,1,4.044.5Z" transform="translate(351.986 1261.582)" fill="#4489ef"/>
  </g>
</svg>
