<svg xmlns="http://www.w3.org/2000/svg" width="44.083" height="50.439" viewBox="0 0 44.083 50.439">
  <g id="Group_688" data-name="Group 688" transform="translate(-536.946 -857.092)">
    <path id="Line_236" data-name="Line 236" d="M8.575,32.559-.769.222.769-.222l9.343,32.337Z" transform="translate(544.429 874.972)" fill="#394553"/>
    <path id="Line_237" data-name="Line 237" d="M.222,4.089-.222,2.552,11.3-.769,11.739.769Z" transform="translate(537.168 889.944)" fill="#394553"/>
    <path id="Path_290" data-name="Path 290" d="M27.074,59.242,20.937,37.827,31.052,34.81l.457,1.533-8.6,2.565,5.7,19.893Z" transform="translate(530.651 846.826)" fill="#394553"/>
    <path id="Path_291" data-name="Path 291" d="M18.642,31.053l-2.2-7.672,1.538-.441,1.751,6.112,7.626-2.3.462,1.532Z" transform="translate(531.998 850.376)" fill="#394553"/>
    <path id="Line_238" data-name="Line 238" d="M.221,7.939-.221,6.4,24.671-.769,25.114.769Z" transform="translate(555.915 889.498)" fill="#394553"/>
    <path id="Path_292" data-name="Path 292" d="M39.555.45a9.733,9.733,0,0,1,9.722,9.721c0,2.171-1.53,6.271-4.548,12.187-2.216,4.345-4.463,8.135-4.486,8.173a.8.8,0,0,1-1.376,0c-.022-.038-2.269-3.828-4.485-8.173-3.018-5.916-4.548-10.016-4.548-12.187A9.732,9.732,0,0,1,39.555.45Zm0,28.081c.831-1.447,2.3-4.057,3.752-6.907,1.994-3.908,4.37-9.068,4.37-11.453a8.121,8.121,0,0,0-16.243,0c0,2.385,2.376,7.544,4.37,11.453C37.257,24.474,38.725,27.084,39.555,28.531Z" transform="translate(528.16 856.642)" fill="#394553"/>
    <path id="Path_293" data-name="Path 293" d="M41.6,7.608a4.611,4.611,0,1,1-4.609,4.61A4.615,4.615,0,0,1,41.6,7.608Zm0,7.622a3.011,3.011,0,1,0-3.009-3.012A3.014,3.014,0,0,0,41.6,15.23Z" transform="translate(526.113 854.595)" fill="#394553"/>
    <path id="Line_239" data-name="Line 239" d="M1.06,6.645-.769.219.769-.219,2.6,6.207Z" transform="translate(574.159 891.388)" fill="#394553"/>
  </g>
</svg>
