<svg xmlns="http://www.w3.org/2000/svg" width="5.683" height="9.796" viewBox="0 0 5.683 9.796">
  <g id="Group_712" data-name="Group 712" transform="translate(-35.789 -323.169)">
    <path id="Line_280" data-name="Line 280" d="M6.036.5H0A.5.5,0,0,1-.5,0,.5.5,0,0,1,0-.5H6.036a.5.5,0,0,1,.5.5A.5.5,0,0,1,6.036.5Z" transform="translate(40.765 328.144) rotate(-135)" fill="#4489ef"/>
    <path id="Line_301" data-name="Line 301" d="M6.036.5H0A.5.5,0,0,1-.5,0,.5.5,0,0,1,0-.5H6.036a.5.5,0,0,1,.5.5A.5.5,0,0,1,6.036.5Z" transform="translate(36.496 332.258) rotate(-45)" fill="#4489ef"/>
  </g>
</svg>
