<svg xmlns="http://www.w3.org/2000/svg" width="16.599" height="16.599" viewBox="0 0 16.599 16.599">
  <g id="Group_714" data-name="Group 714" transform="translate(-325.437 -32.201)">
    <path id="Line_280" data-name="Line 280" d="M19.474,1H0A1,1,0,0,1-1,0,1,1,0,0,1,0-1H19.474a1,1,0,0,1,1,1A1,1,0,0,1,19.474,1Z" transform="translate(326.852 47.385) rotate(-45)" fill="#1c3150"/>
    <path id="Line_301" data-name="Line 301" d="M19.474,1H0A1,1,0,0,1-1,0,1,1,0,0,1,0-1H19.474a1,1,0,0,1,1,1A1,1,0,0,1,19.474,1Z" transform="translate(326.853 33.615) rotate(45)" fill="#1c3150"/>
  </g>
</svg>
