<svg xmlns="http://www.w3.org/2000/svg" width="21.474" height="14" viewBox="0 0 21.474 14">
  <g id="Group_713" data-name="Group 713" transform="translate(-323 -33.5)">
    <g id="Group_576" data-name="Group 576" transform="translate(-484.605 -494)">
      <path id="Line_279" data-name="Line 279" d="M19.474,1H0A1,1,0,0,1-1,0,1,1,0,0,1,0-1H19.474a1,1,0,0,1,1,1A1,1,0,0,1,19.474,1Z" transform="translate(808.605 528.5)" fill="#1c3150"/>
      <path id="Line_280" data-name="Line 280" d="M19.474,1H0A1,1,0,0,1-1,0,1,1,0,0,1,0-1H19.474a1,1,0,0,1,1,1A1,1,0,0,1,19.474,1Z" transform="translate(808.605 534.5)" fill="#1c3150"/>
      <path id="Line_281" data-name="Line 281" d="M12.5,1H0A1,1,0,0,1-1,0,1,1,0,0,1,0-1H12.5a1,1,0,0,1,1,1A1,1,0,0,1,12.5,1Z" transform="translate(808.605 540.5)" fill="#1c3150"/>
    </g>
  </g>
</svg>
