<svg xmlns="http://www.w3.org/2000/svg" width="45.817" height="35.872" viewBox="0 0 45.817 35.872">
  <g id="Group_693" data-name="Group 693" transform="translate(-693.207 -2724.207)">
    <path id="Path_311" data-name="Path 311" d="M47.967,31.9h-1.4V1.95H7.076V.55H47.967Z" transform="translate(691.057 2723.656)" fill="#1c3150"/>
    <path id="Path_312" data-name="Path 312" d="M1.4,38.307a.7.7,0,0,1-.511-1.178L14.225,22.885a.7.7,0,0,1,1.019,0L28.714,37.09a.7.7,0,0,1-1.016.963L14.74,24.384,1.913,38.086A.7.7,0,0,1,1.4,38.307Z" transform="translate(692.615 2717.583)" fill="#1c3150"/>
    <path id="Rectangle_267" data-name="Rectangle 267" d="M-.7-.7H40.294V30.356H-.7ZM38.894.7H.7V28.956H38.894Z" transform="translate(693.907 2729.723)" fill="#1c3150"/>
    <path id="Path_313" data-name="Path 313" d="M50.193,38.972l-8.609-9.187L37.668,33.92l-1.017-.963,4.426-4.675a.7.7,0,0,1,1.019,0l9.118,9.729Z" transform="translate(682.794 2716.1)" fill="#1c3150"/>
    <path id="Path_314" data-name="Path 314" d="M34.762,14.309a4.15,4.15,0,1,1-4.148,4.15A4.154,4.154,0,0,1,34.762,14.309Zm0,6.9a2.75,2.75,0,1,0-2.748-2.75A2.753,2.753,0,0,0,34.762,21.209Z" transform="translate(684.399 2719.877)" fill="#1c3150"/>
  </g>
</svg>
