<svg xmlns="http://www.w3.org/2000/svg" width="29.59" height="45.678" viewBox="0 0 29.59 45.678">
  <path id="Union_17" data-name="Union 17" d="M-5269.267,2710.675a.808.808,0,0,1-.6-.344h0c-.009-.013-.017-.025-.025-.038l0-.007c-.369-.607-3.7-6.112-7.016-12.444a103.355,103.355,0,0,1-5.71-12.459,19.345,19.345,0,0,1-1.378-5.962,14.627,14.627,0,0,1,14.794-14.42,14.629,14.629,0,0,1,14.8,14.42,19.345,19.345,0,0,1-1.378,5.962,103.508,103.508,0,0,1-5.713,12.459c-3.315,6.326-6.646,11.837-7.015,12.444l0,.007a.817.817,0,0,1-.1.133.8.8,0,0,1-.584.253Zm-7.787-31.255a7.745,7.745,0,0,0,7.848,7.618,7.744,7.744,0,0,0,7.848-7.618,7.744,7.744,0,0,0-7.848-7.619A7.745,7.745,0,0,0-5277.054,2679.42Z" transform="translate(5284 -2665)" fill="#1c3150"/>
</svg>
