<svg xmlns="http://www.w3.org/2000/svg" width="15.668" height="23.6" viewBox="0 0 15.668 23.6">
  <path id="Subtraction_4" data-name="Subtraction 4" d="M-1388.166,2688.6l-.06,0a.8.8,0,0,1-.629-.391c-.306-.5-1.913-3.153-3.535-6.226-2.395-4.538-3.609-7.694-3.609-9.383a7.727,7.727,0,0,1,7.833-7.6,7.728,7.728,0,0,1,7.835,7.6c0,1.688-1.215,4.845-3.61,9.383-1.673,3.169-3.355,5.932-3.542,6.236-.006.011-.013.021-.02.031l-.009.012A.8.8,0,0,1-1388.166,2688.6Zm0-20.2a4.28,4.28,0,0,0-4.346,4.2,4.281,4.281,0,0,0,4.346,4.2,4.281,4.281,0,0,0,4.346-4.2A4.28,4.28,0,0,0-1388.166,2668.4Z" transform="translate(1396 -2665)" fill="#4489ef"/>
</svg>
