<svg xmlns="http://www.w3.org/2000/svg" width="24" height="24" viewBox="0 0 24 24">
  <path id="Subtraction_5" data-name="Subtraction 5" d="M-5272,2689a11.921,11.921,0,0,1-8.485-3.514A11.919,11.919,0,0,1-5284,2677a11.92,11.92,0,0,1,3.515-8.485A11.922,11.922,0,0,1-5272,2665a11.922,11.922,0,0,1,8.485,3.515A11.921,11.921,0,0,1-5260,2677a11.922,11.922,0,0,1-3.515,8.486A11.921,11.921,0,0,1-5272,2689Zm-1.5-10.5v4.5h3v-4.5h4.5v-3h-4.5V2671h-3v4.5h-4.5v3Z" transform="translate(5284 -2665)" fill="#5e6d83"/>
</svg>
