<svg xmlns="http://www.w3.org/2000/svg" width="13.524" height="20.724" viewBox="0 0 13.524 20.724">
  <g id="Group_705" data-name="Group 705" transform="translate(-354 -1178)">
    <path id="Path_359" data-name="Path 359" d="M36.9.75a6.687,6.687,0,0,1,6.762,6.594c0,1.477-1.073,4.273-3.188,8.309-1.555,2.967-3.131,5.555-3.147,5.581a.5.5,0,0,1-.854,0c-.016-.026-1.592-2.614-3.147-5.581-2.115-4.036-3.188-6.831-3.188-8.309A6.687,6.687,0,0,1,36.9.75ZM36.9,20c.572-.966,1.636-2.8,2.691-4.815,1.4-2.674,3.072-6.2,3.072-7.84a5.764,5.764,0,0,0-11.524,0c0,.9.533,3,3.071,7.84C35.26,17.2,36.324,19.033,36.9,20Z" transform="translate(323.866 1177.25)" fill="#4489ef"/>
    <path id="Path_360" data-name="Path 360" d="M41.662,7.908a4.268,4.268,0,1,1-4.369,4.266A4.324,4.324,0,0,1,41.662,7.908Zm0,7.534a3.269,3.269,0,1,0-3.369-3.268A3.324,3.324,0,0,0,41.662,15.442Z" transform="translate(319.099 1172.42)" fill="#4489ef"/>
  </g>
</svg>
