<svg xmlns="http://www.w3.org/2000/svg" width="140.557" height="147.727" viewBox="0 0 140.557 147.727">
  <g id="Group_709" data-name="Group 709" transform="translate(-512.777 -6808.136)">
    <path id="Path_347" data-name="Path 347" d="M57.124,148.377H57.1a.6.6,0,0,1-.535-.392l-13.843-37.59L1.042,95a.6.6,0,0,1-.126-1.062L140.273.751a.6.6,0,0,1,.928.58L121.834,142.263a.6.6,0,0,1-.817.475L69.933,122.3,57.665,148.035A.6.6,0,0,1,57.124,148.377ZM2.562,94.286l40.831,15.079a.6.6,0,0,1,.355.355l13.447,36.514,11.9-24.954a.6.6,0,0,1,.764-.3l50.893,20.358L139.83,2.491Z" transform="translate(512.127 6807.486)" fill="#fabc33"/>
    <path id="Line_275" data-name="Line 275" d="M0,97.581a.6.6,0,0,1-.4-.153.6.6,0,0,1-.047-.847L86.4-.4a.6.6,0,0,1,.847-.047A.6.6,0,0,1,87.3.4L.447,97.381A.6.6,0,0,1,0,97.581Z" transform="translate(565.886 6808.736)" fill="#fabc33"/>
    <path id="Line_276" data-name="Line 276" d="M.517,120.593l-1.034-.61L70.456-.3,71.489.3Z" transform="translate(581.761 6808.735)" fill="#fabc33"/>
  </g>
</svg>
