<svg xmlns="http://www.w3.org/2000/svg" width="42.043" height="51.15" viewBox="0 0 42.043 51.15">
  <g id="Group_696" data-name="Group 696" transform="translate(-694.3 -2920.3)">
    <path id="Path_350" data-name="Path 350" d="M29.221,58.128A.7.7,0,0,1,28.813,58l-12.7-9.118a3.451,3.451,0,0,1-.772-4.813l.245-.34a3.453,3.453,0,0,1,4.814-.771l4.388,3.137L21.793,27.983a3.355,3.355,0,0,1,.669-2.593A3.643,3.643,0,0,1,24.744,24a3.557,3.557,0,0,1,4.075,2.819L30.4,36.409H40.5a4.836,4.836,0,0,1,2.18.714A6.012,6.012,0,0,1,45.4,41.551q0,.028.007.055l1.063,12.582a.7.7,0,0,1-1.4.118L44.017,41.753c-.623-3.687-3.336-3.93-3.556-3.944H29.811a.7.7,0,0,1-.691-.586L27.438,27.051a2.165,2.165,0,0,0-2.467-1.667,2.23,2.23,0,0,0-1.395.854,1.969,1.969,0,0,0-.4,1.518L26.444,47.53a.7.7,0,0,1-1.1.684l-5.765-4.122a2.053,2.053,0,0,0-2.861.455l-.245.34a2.051,2.051,0,0,0,.455,2.857l12.7,9.117a.7.7,0,0,1-.409,1.269Z" transform="translate(689.867 2913.321)" fill="#1c3150"/>
    <path id="Path_351" data-name="Path 351" d="M7.357,32.362a.7.7,0,0,1-.685-.845L8.951,20.754.781,13.385a.7.7,0,0,1,.4-1.216l10.942-1.157L16.6.965a.7.7,0,0,1,1.279,0l4.481,10.047L33.3,12.169a.7.7,0,0,1,.4,1.213L27.217,19.3l-.944-1.034L31.605,13.4,21.81,12.362a.7.7,0,0,1-.566-.411L17.238,2.969l-4.005,8.982a.7.7,0,0,1-.566.411L2.884,13.4l7.3,6.588a.7.7,0,0,1,.216.665L8.366,30.272,16,25.872l.7,1.213L7.706,32.268A.7.7,0,0,1,7.357,32.362Z" transform="translate(693.75 2919.75)" fill="#1c3150"/>
  </g>
</svg>
