<svg xmlns="http://www.w3.org/2000/svg" width="13.078" height="13.078" viewBox="0 0 13.078 13.078">
  <path id="Path_214" data-name="Path 214" d="M15.539,0a.5.5,0,0,1,.469.326l1.6,4.32h3.966a.5.5,0,0,1,.307.894L18.714,8.01l1.48,4.409a.5.5,0,0,1-.767.564l-3.888-2.808-3.888,2.808a.5.5,0,0,1-.767-.564l1.48-4.409L9.193,5.54A.5.5,0,0,1,9.5,4.645h3.966l1.6-4.32A.5.5,0,0,1,15.539,0Zm4.584,5.645H17.264A.5.5,0,0,1,16.8,5.32L15.539,1.936,14.282,5.32a.5.5,0,0,1-.469.326H10.956l2.3,1.793a.5.5,0,0,1,.167.554l-1.1,3.269,2.919-2.108a.5.5,0,0,1,.586,0l2.919,2.108-1.1-3.269a.5.5,0,0,1,.167-.554Z" transform="translate(-9)" fill="#4489ef"/>
</svg>
