<svg xmlns="http://www.w3.org/2000/svg" width="13.078" height="13.078" viewBox="0 0 13.078 13.078">
  <path id="Union_15" data-name="Union 15" d="M-1385.573,2677.983l-3.888-2.808-3.889,2.808a.5.5,0,0,1-.589,0,.5.5,0,0,1-.178-.562l1.48-4.409-3.172-2.47a.5.5,0,0,1-.166-.556.5.5,0,0,1,.472-.337h3.966l1.6-4.32a.5.5,0,0,1,.469-.326.5.5,0,0,1,.468.326l1.6,4.32h3.966a.5.5,0,0,1,.473.337.5.5,0,0,1-.166.556l-3.171,2.47,1.479,4.409a.5.5,0,0,1-.178.562.5.5,0,0,1-.3.1A.5.5,0,0,1-1385.573,2677.983Zm-.677-1.722-1.1-3.269a.5.5,0,0,1,.167-.554l2.3-1.793h-2.858a.5.5,0,0,1-.469-.326l-.8-2.143v6.1Zm-5.3-3.428h0Z" transform="translate(1396 -2665)" fill="#4489ef"/>
</svg>
