<svg xmlns="http://www.w3.org/2000/svg" width="42.254" height="32.24" viewBox="0 0 42.254 32.24">
  <path id="Path_11" data-name="Path 11" d="M673.321,129.985l-.513,1.539A8.522,8.522,0,0,1,671,134.613a13.756,13.756,0,0,0,1.986-.7l1.891-.84L673.73,134.8a15.416,15.416,0,0,1-3.791,3.947v.68a20.484,20.484,0,0,1-.55,4.866,23.347,23.347,0,0,1-7.284,12.4,22.731,22.731,0,0,1-15.274,5.538,23.32,23.32,0,0,1-12.451-3.6l-1.757-1.108H634.7c.362,0,.682.02.991.039s.592.037.916.037a15.553,15.553,0,0,0,8.179-2.35,8.616,8.616,0,0,1-3.308-1.488,8.224,8.224,0,0,1-3-4.155l-.3-.934.967.161c.275.046.54.09.816.117a8.539,8.539,0,0,1-3.758-4.256,7.686,7.686,0,0,1-.579-3.052v-1.11l.9.513a7.22,7.22,0,0,0,1.315.591,8.274,8.274,0,0,1-.983-9.763l.438-.729.54.657a21.921,21.921,0,0,0,15.115,7.9,7.649,7.649,0,0,1-.079-1.105,8.245,8.245,0,0,1,2.517-5.922,8.656,8.656,0,0,1,12.012-.075,15.149,15.149,0,0,0,4.532-1.766ZM667,133.9l-.23-.242a7.45,7.45,0,0,0-10.542-.137,7.054,7.054,0,0,0-2.157,5.065,5.885,5.885,0,0,0,.206,1.59l.229.8-.834-.039a23.136,23.136,0,0,1-16.176-7.7,7.113,7.113,0,0,0-.592,2.824,7.2,7.2,0,0,0,3.243,5.986l1.649,1.1h-1.982a7.653,7.653,0,0,1-2.935-.6,6.174,6.174,0,0,0,.437,1.681l0,0a7.327,7.327,0,0,0,5.36,4.444l.012,1.174a10.108,10.108,0,0,1-2.19.319c-.18,0-.351-.008-.515-.021a7.093,7.093,0,0,0,2.206,2.638,7.455,7.455,0,0,0,4.274,1.448l1.735.039-1.388,1.041a16.964,16.964,0,0,1-9.68,3.469,22.1,22.1,0,0,0,9.7,2.242,21.549,21.549,0,0,0,14.482-5.239,22.138,22.138,0,0,0,6.906-11.763l0-.009a19.313,19.313,0,0,0,.518-4.591v-1.308l.261-.179a13.8,13.8,0,0,0,2.5-2.216,20.365,20.365,0,0,1-2.691.559l-.39-1.111a7.281,7.281,0,0,0,2.539-2.492,17.632,17.632,0,0,1-3.637,1.154Z" transform="translate(-632.623 -129.985)" fill="#1c3150"/>
</svg>
