<svg xmlns="http://www.w3.org/2000/svg" width="22.957" height="15.013" viewBox="0 0 22.957 15.013">
  <g id="Group_707" data-name="Group 707" transform="translate(-348.876 -1296.876)">
    <path id="Path_327" data-name="Path 327" d="M26.464,12.183h-1V2.548a.8.8,0,0,0-.8-.8H9.473a.8.8,0,0,0-.8.8v9.635h-1V2.548a1.8,1.8,0,0,1,1.8-1.8H24.666a1.8,1.8,0,0,1,1.8,1.8Z" transform="translate(343.284 1296.126)" fill="#4489ef"/>
    <path id="Path_328" data-name="Path 328" d="M1.25,41.613h9.028a.5.5,0,0,1,.379.174l.161.187h2.82l.162-.188a.5.5,0,0,1,.378-.173h9.028a.5.5,0,0,1,.488.608c-.173.784-.814,2.11-2.123,2.11H2.885C1.576,44.331.934,43,.762,42.221a.5.5,0,0,1,.488-.608Zm8.8,1H1.967a1.117,1.117,0,0,0,.918.718H21.571a1.117,1.117,0,0,0,.918-.718H14.407l-.162.188a.5.5,0,0,1-.378.173H10.588a.5.5,0,0,1-.379-.174Z" transform="translate(348.126 1267.559)" fill="#4489ef"/>
    <path id="Line_252" data-name="Line 252" d="M6.408.5H-.5v-1H6.408Z" transform="translate(360.016 1303.613)" fill="#4489ef"/>
    <path id="Line_253" data-name="Line 253" d="M6.408.5H-.5v-1H6.408Z" transform="translate(360.016 1301.761)" fill="#4489ef"/>
    <path id="Line_254" data-name="Line 254" d="M6.408.5H-.5v-1H6.408Z" transform="translate(360.016 1299.91)" fill="#4489ef"/>
    <path id="Line_255" data-name="Line 255" d="M11.639.5H-.5v-1H11.639Z" transform="translate(354.785 1305.464)" fill="#4489ef"/>
    <path id="Line_256" data-name="Line 256" d="M9.113.5H-.5v-1H9.113Z" transform="translate(354.785 1307.316)" fill="#4489ef"/>
    <path id="Path_329" data-name="Path 329" d="M23.089,13.893H18.726V10.919h1v1.974h2.363V10.2H18.726v-1h4.363Z" transform="translate(335.559 1290.215)" fill="#4489ef"/>
  </g>
</svg>
