<svg xmlns="http://www.w3.org/2000/svg" width="23.202" height="16.949" viewBox="0 0 23.202 16.949">
  <path id="Path_4" data-name="Path 4" d="M531.612,136.229a5.407,5.407,0,0,0-.919-2.388,3.158,3.158,0,0,0-2.3-1.01c-3.261-.23-8.13-.23-8.13-.23h-.046s-4.869,0-8.13.23a3.378,3.378,0,0,0-2.342,1.01,5.407,5.407,0,0,0-.919,2.388,38.893,38.893,0,0,0-.23,3.9v1.837a37.7,37.7,0,0,0,.23,3.9,5.716,5.716,0,0,0,.919,2.434,3.7,3.7,0,0,0,2.572,1.01c1.837.184,7.9.23,7.9.23s4.869-.046,8.13-.23a3.1,3.1,0,0,0,2.3-1.01,5.521,5.521,0,0,0,.919-2.434,37.7,37.7,0,0,0,.23-3.9v-1.837a32.236,32.236,0,0,0-.184-3.9Zm-7.487,4.593-6.293,3.4v-6.844l2.848,1.562Z" transform="translate(-508.6 -132.6)" fill="#1c3150" fill-rule="evenodd"/>
</svg>
