<svg width="0" height="0" class="hidden">
  <symbol xmlns="http://www.w3.org/2000/svg" viewBox="0 0 15.668 23.6" id="pin_active">
    <path id="Subtraction_4" d="M-1388.166,2688.6l-.06,0a.8.8,0,0,1-.629-.391c-.306-.5-1.913-3.153-3.535-6.226-2.395-4.538-3.609-7.694-3.609-9.383a7.727,7.727,0,0,1,7.833-7.6,7.728,7.728,0,0,1,7.835,7.6c0,1.688-1.215,4.845-3.61,9.383-1.673,3.169-3.355,5.932-3.542,6.236-.006.011-.013.021-.02.031l-.009.012A.8.8,0,0,1-1388.166,2688.6Zm0-20.2a4.28,4.28,0,0,0-4.346,4.2,4.281,4.281,0,0,0,4.346,4.2,4.281,4.281,0,0,0,4.346-4.2A4.28,4.28,0,0,0-1388.166,2668.4Z" transform="translate(1396 -2665)" fill="#4489ef"></path>
  </symbol>
  <symbol xmlns="http://www.w3.org/2000/svg" viewBox="0 0 34 40" id="play">
    <path id="Polygon_5" d="M20,7.889,6.994,30H33.006L20,7.889M20,0,40,34H0Z" transform="translate(34) rotate(90)" fill="#fabc33"></path>
  </symbol>
  <symbol xmlns="http://www.w3.org/2000/svg" viewBox="0 0 24 24" id="plus">
    <path id="Subtraction_5" d="M-5272,2689a11.921,11.921,0,0,1-8.485-3.514A11.919,11.919,0,0,1-5284,2677a11.92,11.92,0,0,1,3.515-8.485A11.922,11.922,0,0,1-5272,2665a11.922,11.922,0,0,1,8.485,3.515A11.921,11.921,0,0,1-5260,2677a11.922,11.922,0,0,1-3.515,8.486A11.921,11.921,0,0,1-5272,2689Zm-1.5-10.5v4.5h3v-4.5h4.5v-3h-4.5V2671h-3v4.5h-4.5v3Z" transform="translate(5284 -2665)" fill="#5e6d83"></path>
  </symbol>
  <symbol xmlns="http://www.w3.org/2000/svg" viewBox="0 0 13.524 20.724" id="point_active">
    <g id="Group_705" transform="translate(-354 -1178)">
      <path id="Path_359" d="M36.9.75a6.687,6.687,0,0,1,6.762,6.594c0,1.477-1.073,4.273-3.188,8.309-1.555,2.967-3.131,5.555-3.147,5.581a.5.5,0,0,1-.854,0c-.016-.026-1.592-2.614-3.147-5.581-2.115-4.036-3.188-6.831-3.188-8.309A6.687,6.687,0,0,1,36.9.75ZM36.9,20c.572-.966,1.636-2.8,2.691-4.815,1.4-2.674,3.072-6.2,3.072-7.84a5.764,5.764,0,0,0-11.524,0c0,.9.533,3,3.071,7.84C35.26,17.2,36.324,19.033,36.9,20Z" transform="translate(323.866 1177.25)" fill="#4489ef"></path>
      <path id="Path_360" d="M41.662,7.908a4.268,4.268,0,1,1-4.369,4.266A4.324,4.324,0,0,1,41.662,7.908Zm0,7.534a3.269,3.269,0,1,0-3.369-3.268A3.324,3.324,0,0,0,41.662,15.442Z" transform="translate(319.099 1172.42)" fill="#4489ef"></path>
    </g>
  </symbol>
  <symbol xmlns="http://www.w3.org/2000/svg" viewBox="0 0 19.807 37.639" id="right">
    <g id="Group_97" transform="translate(-424.846 -515.515)">
      <path id="Path_20" d="M26.65,37.639a.988.988,0,0,1-.7-1.686L43.086,18.819,25.952,1.686a.988.988,0,1,1,1.4-1.4L45.181,18.121a.989.989,0,0,1,0,1.4L27.349,37.349a.984.984,0,0,1-.7.29" transform="translate(399.184 515.514)" fill="#2c2f35"></path>
    </g>
  </symbol>
  <symbol xmlns="http://www.w3.org/2000/svg" viewBox="0 0 140.557 147.727" id="share">
    <g id="Group_709" transform="translate(-512.777 -6808.136)">
      <path id="Path_347" d="M57.124,148.377H57.1a.6.6,0,0,1-.535-.392l-13.843-37.59L1.042,95a.6.6,0,0,1-.126-1.062L140.273.751a.6.6,0,0,1,.928.58L121.834,142.263a.6.6,0,0,1-.817.475L69.933,122.3,57.665,148.035A.6.6,0,0,1,57.124,148.377ZM2.562,94.286l40.831,15.079a.6.6,0,0,1,.355.355l13.447,36.514,11.9-24.954a.6.6,0,0,1,.764-.3l50.893,20.358L139.83,2.491Z" transform="translate(512.127 6807.486)" fill="#fabc33"></path>
      <path id="Line_275" d="M0,97.581a.6.6,0,0,1-.4-.153.6.6,0,0,1-.047-.847L86.4-.4a.6.6,0,0,1,.847-.047A.6.6,0,0,1,87.3.4L.447,97.381A.6.6,0,0,1,0,97.581Z" transform="translate(565.886 6808.736)" fill="#fabc33"></path>
      <path id="Line_276" d="M.517,120.593l-1.034-.61L70.456-.3,71.489.3Z" transform="translate(581.761 6808.735)" fill="#fabc33"></path>
    </g>
  </symbol>
  <symbol xmlns="http://www.w3.org/2000/svg" viewBox="0 0 42.043 51.15" id="star_click">
    <g id="Group_696" transform="translate(-694.3 -2920.3)">
      <path id="Path_350" d="M29.221,58.128A.7.7,0,0,1,28.813,58l-12.7-9.118a3.451,3.451,0,0,1-.772-4.813l.245-.34a3.453,3.453,0,0,1,4.814-.771l4.388,3.137L21.793,27.983a3.355,3.355,0,0,1,.669-2.593A3.643,3.643,0,0,1,24.744,24a3.557,3.557,0,0,1,4.075,2.819L30.4,36.409H40.5a4.836,4.836,0,0,1,2.18.714A6.012,6.012,0,0,1,45.4,41.551q0,.028.007.055l1.063,12.582a.7.7,0,0,1-1.4.118L44.017,41.753c-.623-3.687-3.336-3.93-3.556-3.944H29.811a.7.7,0,0,1-.691-.586L27.438,27.051a2.165,2.165,0,0,0-2.467-1.667,2.23,2.23,0,0,0-1.395.854,1.969,1.969,0,0,0-.4,1.518L26.444,47.53a.7.7,0,0,1-1.1.684l-5.765-4.122a2.053,2.053,0,0,0-2.861.455l-.245.34a2.051,2.051,0,0,0,.455,2.857l12.7,9.117a.7.7,0,0,1-.409,1.269Z" transform="translate(689.867 2913.321)" fill="#1c3150"></path>
      <path id="Path_351" d="M7.357,32.362a.7.7,0,0,1-.685-.845L8.951,20.754.781,13.385a.7.7,0,0,1,.4-1.216l10.942-1.157L16.6.965a.7.7,0,0,1,1.279,0l4.481,10.047L33.3,12.169a.7.7,0,0,1,.4,1.213L27.217,19.3l-.944-1.034L31.605,13.4,21.81,12.362a.7.7,0,0,1-.566-.411L17.238,2.969l-4.005,8.982a.7.7,0,0,1-.566.411L2.884,13.4l7.3,6.588a.7.7,0,0,1,.216.665L8.366,30.272,16,25.872l.7,1.213L7.706,32.268A.7.7,0,0,1,7.357,32.362Z" transform="translate(693.75 2919.75)" fill="#1c3150"></path>
    </g>
  </symbol>
  <symbol xmlns="http://www.w3.org/2000/svg" viewBox="0 0 13.078 13.078" id="star_empty">
    <path id="Path_214" d="M15.539,0a.5.5,0,0,1,.469.326l1.6,4.32h3.966a.5.5,0,0,1,.307.894L18.714,8.01l1.48,4.409a.5.5,0,0,1-.767.564l-3.888-2.808-3.888,2.808a.5.5,0,0,1-.767-.564l1.48-4.409L9.193,5.54A.5.5,0,0,1,9.5,4.645h3.966l1.6-4.32A.5.5,0,0,1,15.539,0Zm4.584,5.645H17.264A.5.5,0,0,1,16.8,5.32L15.539,1.936,14.282,5.32a.5.5,0,0,1-.469.326H10.956l2.3,1.793a.5.5,0,0,1,.167.554l-1.1,3.269,2.919-2.108a.5.5,0,0,1,.586,0l2.919,2.108-1.1-3.269a.5.5,0,0,1,.167-.554Z" transform="translate(-9)" fill="#4489ef"></path>
  </symbol>
  <symbol xmlns="http://www.w3.org/2000/svg" viewBox="0 0 12.078 12.078" id="star_full">
    <path id="Path_213" d="M15.539.5l1.725,4.645h4.314L18.127,7.833l1.592,4.745-4.181-3.02-4.181,3.02,1.592-4.745L9.5,5.145h4.314Z" transform="translate(-9.5 -0.5)" fill="#4489ef"></path>
  </symbol>
  <symbol xmlns="http://www.w3.org/2000/svg" viewBox="0 0 13.078 13.078" id="star_half">
    <path id="Union_15" d="M-1385.573,2677.983l-3.888-2.808-3.889,2.808a.5.5,0,0,1-.589,0,.5.5,0,0,1-.178-.562l1.48-4.409-3.172-2.47a.5.5,0,0,1-.166-.556.5.5,0,0,1,.472-.337h3.966l1.6-4.32a.5.5,0,0,1,.469-.326.5.5,0,0,1,.468.326l1.6,4.32h3.966a.5.5,0,0,1,.473.337.5.5,0,0,1-.166.556l-3.171,2.47,1.479,4.409a.5.5,0,0,1-.178.562.5.5,0,0,1-.3.1A.5.5,0,0,1-1385.573,2677.983Zm-.677-1.722-1.1-3.269a.5.5,0,0,1,.167-.554l2.3-1.793h-2.858a.5.5,0,0,1-.469-.326l-.8-2.143v6.1Zm-5.3-3.428h0Z" transform="translate(1396 -2665)" fill="#4489ef"></path>
  </symbol>
  <symbol xmlns="http://www.w3.org/2000/svg" viewBox="0 0 18.626 19.186" id="tel">
    <g id="Group_704" transform="translate(-350.865 -1216.865)">
      <path id="Path_321" d="M54.706,30.431l-.73-.683a1.8,1.8,0,0,0,.048-2.409l.756-.654a2.8,2.8,0,0,1-.073,3.747Z" transform="translate(312.539 1197.882)" fill="#4489ef"></path>
      <path id="Path_322" d="M58.67,29.193l-.748-.664a3.282,3.282,0,0,0,.083-4.264l.774-.634a4.282,4.282,0,0,1-.109,5.561Z" transform="translate(309.74 1200.05)" fill="#4489ef"></path>
      <path id="Path_323" d="M6.524,30.591A2.795,2.795,0,0,1,6.6,26.844l.73.683a1.795,1.795,0,0,0-.048,2.409Z" transform="translate(346.513 1197.759)" fill="#4489ef"></path>
      <path id="Path_324" d="M1.722,29.2a4.282,4.282,0,0,1,.109-5.561l.748.664A3.282,3.282,0,0,0,2.5,28.566Z" transform="translate(350.115 1200.034)" fill="#4489ef"></path>
      <path id="Path_325" d="M15.025.75h8.41a1.324,1.324,0,0,1,1.323,1.323V18.586a1.354,1.354,0,0,1-1.323,1.349h-8.41A1.354,1.354,0,0,1,13.7,18.586V2.073A1.324,1.324,0,0,1,15.025.75Zm8.41,18.186a.35.35,0,0,0,.323-.349V2.073a.323.323,0,0,0-.323-.323h-8.41a.327.327,0,0,0-.323.323V18.586a.35.35,0,0,0,.323.349Z" transform="translate(340.948 1216.115)" fill="#4489ef"></path>
      <path id="Line_250" d="M1.368.5H0A.5.5,0,0,1-.5,0,.5.5,0,0,1,0-.5H1.368a.5.5,0,0,1,.5.5A.5.5,0,0,1,1.368.5Z" transform="translate(359.494 1233.717)" fill="#4489ef"></path>
    </g>
  </symbol>
  <symbol xmlns="http://www.w3.org/2000/svg" viewBox="0 0 42.254 32.24" id="tw">
    <path id="Path_11" d="M673.321,129.985l-.513,1.539A8.522,8.522,0,0,1,671,134.613a13.756,13.756,0,0,0,1.986-.7l1.891-.84L673.73,134.8a15.416,15.416,0,0,1-3.791,3.947v.68a20.484,20.484,0,0,1-.55,4.866,23.347,23.347,0,0,1-7.284,12.4,22.731,22.731,0,0,1-15.274,5.538,23.32,23.32,0,0,1-12.451-3.6l-1.757-1.108H634.7c.362,0,.682.02.991.039s.592.037.916.037a15.553,15.553,0,0,0,8.179-2.35,8.616,8.616,0,0,1-3.308-1.488,8.224,8.224,0,0,1-3-4.155l-.3-.934.967.161c.275.046.54.09.816.117a8.539,8.539,0,0,1-3.758-4.256,7.686,7.686,0,0,1-.579-3.052v-1.11l.9.513a7.22,7.22,0,0,0,1.315.591,8.274,8.274,0,0,1-.983-9.763l.438-.729.54.657a21.921,21.921,0,0,0,15.115,7.9,7.649,7.649,0,0,1-.079-1.105,8.245,8.245,0,0,1,2.517-5.922,8.656,8.656,0,0,1,12.012-.075,15.149,15.149,0,0,0,4.532-1.766ZM667,133.9l-.23-.242a7.45,7.45,0,0,0-10.542-.137,7.054,7.054,0,0,0-2.157,5.065,5.885,5.885,0,0,0,.206,1.59l.229.8-.834-.039a23.136,23.136,0,0,1-16.176-7.7,7.113,7.113,0,0,0-.592,2.824,7.2,7.2,0,0,0,3.243,5.986l1.649,1.1h-1.982a7.653,7.653,0,0,1-2.935-.6,6.174,6.174,0,0,0,.437,1.681l0,0a7.327,7.327,0,0,0,5.36,4.444l.012,1.174a10.108,10.108,0,0,1-2.19.319c-.18,0-.351-.008-.515-.021a7.093,7.093,0,0,0,2.206,2.638,7.455,7.455,0,0,0,4.274,1.448l1.735.039-1.388,1.041a16.964,16.964,0,0,1-9.68,3.469,22.1,22.1,0,0,0,9.7,2.242,21.549,21.549,0,0,0,14.482-5.239,22.138,22.138,0,0,0,6.906-11.763l0-.009a19.313,19.313,0,0,0,.518-4.591v-1.308l.261-.179a13.8,13.8,0,0,0,2.5-2.216,20.365,20.365,0,0,1-2.691.559l-.39-1.111a7.281,7.281,0,0,0,2.539-2.492,17.632,17.632,0,0,1-3.637,1.154Z" transform="translate(-632.623 -129.985)" fill="#1c3150"></path>
  </symbol>
  <symbol xmlns="http://www.w3.org/2000/svg" viewBox="0 0 22.957 15.013" id="web">
    <g id="Group_707" transform="translate(-348.876 -1296.876)">
      <path id="Path_327" d="M26.464,12.183h-1V2.548a.8.8,0,0,0-.8-.8H9.473a.8.8,0,0,0-.8.8v9.635h-1V2.548a1.8,1.8,0,0,1,1.8-1.8H24.666a1.8,1.8,0,0,1,1.8,1.8Z" transform="translate(343.284 1296.126)" fill="#4489ef"></path>
      <path id="Path_328" d="M1.25,41.613h9.028a.5.5,0,0,1,.379.174l.161.187h2.82l.162-.188a.5.5,0,0,1,.378-.173h9.028a.5.5,0,0,1,.488.608c-.173.784-.814,2.11-2.123,2.11H2.885C1.576,44.331.934,43,.762,42.221a.5.5,0,0,1,.488-.608Zm8.8,1H1.967a1.117,1.117,0,0,0,.918.718H21.571a1.117,1.117,0,0,0,.918-.718H14.407l-.162.188a.5.5,0,0,1-.378.173H10.588a.5.5,0,0,1-.379-.174Z" transform="translate(348.126 1267.559)" fill="#4489ef"></path>
      <path id="Line_252" d="M6.408.5H-.5v-1H6.408Z" transform="translate(360.016 1303.613)" fill="#4489ef"></path>
      <path id="Line_253" d="M6.408.5H-.5v-1H6.408Z" transform="translate(360.016 1301.761)" fill="#4489ef"></path>
      <path id="Line_254" d="M6.408.5H-.5v-1H6.408Z" transform="translate(360.016 1299.91)" fill="#4489ef"></path>
      <path id="Line_255" d="M11.639.5H-.5v-1H11.639Z" transform="translate(354.785 1305.464)" fill="#4489ef"></path>
      <path id="Line_256" d="M9.113.5H-.5v-1H9.113Z" transform="translate(354.785 1307.316)" fill="#4489ef"></path>
      <path id="Path_329" d="M23.089,13.893H18.726V10.919h1v1.974h2.363V10.2H18.726v-1h4.363Z" transform="translate(335.559 1290.215)" fill="#4489ef"></path>
    </g>
  </symbol>
  <symbol xmlns="http://www.w3.org/2000/svg" viewBox="0 0 23.202 16.949" id="yt">
    <path id="Path_4" d="M531.612,136.229a5.407,5.407,0,0,0-.919-2.388,3.158,3.158,0,0,0-2.3-1.01c-3.261-.23-8.13-.23-8.13-.23h-.046s-4.869,0-8.13.23a3.378,3.378,0,0,0-2.342,1.01,5.407,5.407,0,0,0-.919,2.388,38.893,38.893,0,0,0-.23,3.9v1.837a37.7,37.7,0,0,0,.23,3.9,5.716,5.716,0,0,0,.919,2.434,3.7,3.7,0,0,0,2.572,1.01c1.837.184,7.9.23,7.9.23s4.869-.046,8.13-.23a3.1,3.1,0,0,0,2.3-1.01,5.521,5.521,0,0,0,.919-2.434,37.7,37.7,0,0,0,.23-3.9v-1.837a32.236,32.236,0,0,0-.184-3.9Zm-7.487,4.593-6.293,3.4v-6.844l2.848,1.562Z" transform="translate(-508.6 -132.6)" fill="#1c3150" fill-rule="evenodd"></path>
  </symbol>
  <symbol xmlns="http://www.w3.org/2000/svg" viewBox="0 0 13.689 14.422" id="arrow_down">
    <g id="Group_155" transform="translate(529.204 -405) rotate(90)">
      <path id="Path_19" d="M22.063,11.667H8.359a.359.359,0,0,1,0-.719h13.7a.359.359,0,0,1,0,.719" transform="translate(397 511.052)" fill="#1c3150"></path>
      <path id="Path_20" d="M26.022,13.69a.359.359,0,0,1-.254-.613L32,6.845,25.768.613a.359.359,0,0,1,.508-.508l6.485,6.485a.36.36,0,0,1,0,.508l-6.485,6.485a.358.358,0,0,1-.254.105" transform="translate(386.556 515.514)" fill="#1c3150"></path>
    </g>
  </symbol>
  <symbol xmlns="http://www.w3.org/2000/svg" viewBox="0 0 14.422 13.689" id="arrow_right">
    <g id="Group_26" transform="translate(-405 -515.515)">
      <path id="Path_19" d="M22.063,11.667H8.359a.359.359,0,0,1,0-.719h13.7a.359.359,0,0,1,0,.719" transform="translate(397 511.052)" fill="#1c3150"></path>
      <path id="Path_20" d="M26.022,13.69a.359.359,0,0,1-.254-.613L32,6.845,25.768.613a.359.359,0,0,1,.508-.508l6.485,6.485a.36.36,0,0,1,0,.508l-6.485,6.485a.358.358,0,0,1-.254.105" transform="translate(386.556 515.514)" fill="#1c3150"></path>
    </g>
  </symbol>
  <symbol xmlns="http://www.w3.org/2000/svg" viewBox="0 0 13.689 7.204" id="arrow_top">
    <g id="Group_137" transform="translate(0 7.204) rotate(-90)">
      <path id="Path_20" d="M.359,0A.359.359,0,0,0,.105.613L6.337,6.845.105,13.076a.359.359,0,1,0,.508.508L7.1,7.1a.36.36,0,0,0,0-.508L.614.105A.358.358,0,0,0,.359,0" transform="translate(0 0)" fill="#1c3150"></path>
    </g>
  </symbol>
  <symbol xmlns="http://www.w3.org/2000/svg" viewBox="0 0 43.25 43.249" id="blocks">
    <g id="Group_689" transform="translate(-890.12 -861.729)">
      <path id="Rectangle_208" d="M-.8-.8H9.83V9.831H-.8ZM8.23.8H.8V8.231H8.23Z" transform="translate(890.92 895.147)" fill="#394553"></path>
      <path id="Rectangle_209" d="M-.8-.8H9.83V9.831H-.8ZM8.23.8H.8V8.231H8.23Z" transform="translate(890.92 878.838)" fill="#394553"></path>
      <path id="Rectangle_210" d="M-.8-.8H9.83V9.831H-.8ZM8.23.8H.8V8.231H8.23Z" transform="translate(890.92 862.529)" fill="#394553"></path>
      <path id="Rectangle_211" d="M-.8-.8H9.83V9.831H-.8ZM8.23.8H.8V8.231H8.23Z" transform="translate(907.23 895.147)" fill="#394553"></path>
      <path id="Rectangle_213" d="M-.8-.8H9.83V9.831H-.8ZM8.23.8H.8V8.231H8.23Z" transform="translate(907.23 878.838)" fill="#394553"></path>
      <path id="Rectangle_214" d="M-.8-.8H9.83V9.831H-.8ZM8.23.8H.8V8.231H8.23Z" transform="translate(907.23 862.529)" fill="#394553"></path>
      <path id="Rectangle_215" d="M-.8-.8H9.832V9.831H-.8ZM8.232.8H.8V8.231H8.232Z" transform="translate(923.538 895.147)" fill="#394553"></path>
      <path id="Rectangle_216" d="M-.8-.8H9.832V9.831H-.8ZM8.232.8H.8V8.231H8.232Z" transform="translate(923.538 878.838)" fill="#394553"></path>
      <path id="Rectangle_217" d="M-.8-.8H9.832V9.831H-.8ZM8.232.8H.8V8.231H8.232Z" transform="translate(923.538 862.529)" fill="#394553"></path>
      <path id="Line_210" d="M.8,7.177H-.8V0H.8Z" transform="translate(911.703 887.923)" fill="#394553"></path>
      <path id="Line_211" d="M.8,7.177H-.8V0H.8Z" transform="translate(911.703 871.58)" fill="#394553"></path>
      <path id="Line_212" d="M.8,7.177H-.8V0H.8Z" transform="translate(928.035 887.923)" fill="#394553"></path>
      <path id="Line_213" d="M.8,7.177H-.8V0H.8Z" transform="translate(928.035 871.58)" fill="#394553"></path>
      <path id="Line_214" d="M.8,7.177H-.8V0H.8Z" transform="translate(895.432 887.923)" fill="#394553"></path>
      <path id="Line_215" d="M.8,7.177H-.8V0H.8Z" transform="translate(895.432 871.58)" fill="#394553"></path>
      <path id="Line_216" d="M7.146.8H0V-.8H7.146Z" transform="translate(916.324 899.685)" fill="#394553"></path>
      <path id="Line_217" d="M7.177.8H0V-.8H7.177Z" transform="translate(899.997 867.061)" fill="#394553"></path>
    </g>
  </symbol>
  <symbol xmlns="http://www.w3.org/2000/svg" viewBox="0 0 53.119 49.722" id="blog">
    <g id="Group_690" transform="translate(-1249.211 -857.211)">
      <path id="Line_178" d="M19.355.8H0V-.8H19.355Z" transform="translate(1257.461 881.423)" fill="#394553"></path>
      <path id="Line_179" d="M19.355.8H0V-.8H19.355Z" transform="translate(1257.461 875.491)" fill="#394553"></path>
      <path id="Line_180" d="M16.621.8H0V-.8H16.621Z" transform="translate(1257.563 887.355)" fill="#394553"></path>
      <path id="Line_181" d="M14.465.8H0V-.8H14.465Z" transform="translate(1257.563 893.287)" fill="#394553"></path>
      <path id="Line_182" d="M12.983.8H0V-.8H12.983Z" transform="translate(1257.563 899.219)" fill="#394553"></path>
      <path id="Line_183" d="M0,2.983a.8.8,0,0,1-.566-.234.8.8,0,0,1,0-1.131L1.617-.566a.8.8,0,0,1,1.131,0,.8.8,0,0,1,0,1.131L.566,2.748A.8.8,0,0,1,0,2.983Z" transform="translate(1274.124 896.775)" fill="#394553"></path>
      <path id="Path_256" d="M40.664,41.884a.8.8,0,0,1-.566-.234l-4.242-4.243a.8.8,0,0,1-.127-.965,47.992,47.992,0,0,1,20.053-19l.035-.017a2.6,2.6,0,0,1,1.067-.214,3.241,3.241,0,0,1,2.225.882l.1.1.2.2a3.135,3.135,0,0,1,.671,3.288l-.017.035a48.459,48.459,0,0,1-19,20.054A.8.8,0,0,1,40.664,41.884Zm-3.24-5.172,3.369,3.369A46.855,46.855,0,0,0,58.63,21.019a1.562,1.562,0,0,0-.348-1.487l-.206-.208-.1-.1a1.635,1.635,0,0,0-1.092-.411,1.055,1.055,0,0,0-.4.069,46.373,46.373,0,0,0-19.06,17.831Z" transform="translate(1242.033 853.554)" fill="#394553"></path>
      <path id="Path_257" d="M34.633,49.77a.8.8,0,0,1-.566-.234l-1.63-1.63a.8.8,0,0,1-.2-.806l.777-2.469,1.526.48-.631,2.006.876.875,4.735-2.419L40.25,47,35,49.682A.8.8,0,0,1,34.633,49.77Z" transform="translate(1242.687 848.416)" fill="#394553"></path>
      <path id="Line_184" d="M2.652,3.8a.8.8,0,0,1-.6-.27L-.6.53A.8.8,0,0,1-.53-.6.8.8,0,0,1,.6-.53l2.652,3a.8.8,0,0,1-.6,1.33Z" transform="translate(1292.314 870.314)" fill="#394553"></path>
      <path id="Path_258" d="M42.657,24.287a.8.8,0,0,1-.572-1.359,53.837,53.837,0,0,1,8.934-7.1.8.8,0,1,1,.842,1.36,53.224,53.224,0,0,0-8.633,6.862A.8.8,0,0,1,42.657,24.287Z" transform="translate(1240.84 853.843)" fill="#394553"></path>
      <path id="Line_185" d="M3.446,4.577-.566.566.566-.566,4.578,3.445Z" transform="translate(1291.322 880.011)" fill="#394553"></path>
      <path id="Path_259" d="M35.5,50.786H1.25a.8.8,0,0,1-.8-.8V4.456a.8.8,0,0,1,.8-.8H4.405v1.6H2.05V49.186H34.7V42.413h1.6v7.573A.8.8,0,0,1,35.5,50.786Z" transform="translate(1248.761 856.147)" fill="#394553"></path>
      <path id="Path_260" d="M37.809,14.605h-1.6V5.257H9.115v-1.6H37.009a.8.8,0,0,1,.8.8Z" transform="translate(1247.256 856.147)" fill="#394553"></path>
      <path id="Line_186" d="M0,5.976a.8.8,0,0,1-.8-.8V0A.8.8,0,0,1,0-.8.8.8,0,0,1,.8,0V5.176A.8.8,0,0,1,0,5.976Z" transform="translate(1256.18 858.011)" fill="#394553"></path>
      <path id="Line_187" d="M0,5.976a.8.8,0,0,1-.8-.8V0A.8.8,0,0,1,0-.8.8.8,0,0,1,.8,0V5.176A.8.8,0,0,1,0,5.976Z" transform="translate(1261.659 858.011)" fill="#394553"></path>
      <path id="Line_188" d="M0,5.976a.8.8,0,0,1-.8-.8V0A.8.8,0,0,1,0-.8.8.8,0,0,1,.8,0V5.176A.8.8,0,0,1,0,5.976Z" transform="translate(1267.138 858.011)" fill="#394553"></path>
      <path id="Line_189" d="M0,5.976a.8.8,0,0,1-.8-.8V0A.8.8,0,0,1,0-.8.8.8,0,0,1,.8,0V5.176A.8.8,0,0,1,0,5.976Z" transform="translate(1272.617 858.011)" fill="#394553"></path>
      <path id="Line_190" d="M0,5.976a.8.8,0,0,1-.8-.8V0A.8.8,0,0,1,0-.8.8.8,0,0,1,.8,0V5.176A.8.8,0,0,1,0,5.976Z" transform="translate(1278.096 858.011)" fill="#394553"></path>
      <path id="Line_191" d="M3.506.8H0V-.8H3.506Z" transform="translate(1250.152 867.283)" fill="#394553"></path>
      <path id="Line_192" d="M3.506.8H0V-.8H3.506Z" transform="translate(1256.245 867.283)" fill="#394553"></path>
      <path id="Line_193" d="M3.506.8H0V-.8H3.506Z" transform="translate(1262.339 867.283)" fill="#394553"></path>
      <path id="Line_194" d="M3.506.8H0V-.8H3.506Z" transform="translate(1268.432 867.283)" fill="#394553"></path>
      <path id="Line_195" d="M3.5.8H0V-.8H3.5Z" transform="translate(1274.526 867.283)" fill="#394553"></path>
      <path id="Line_196" d="M3.506.8H0V-.8H3.506Z" transform="translate(1280.619 867.283)" fill="#394553"></path>
    </g>
  </symbol>
  <symbol xmlns="http://www.w3.org/2000/svg" viewBox="0 0 53.779 53.359" id="book">
    <g id="Group_699" transform="translate(-636.11 -597.25)">
      <path id="Path_272" d="M47.03,42.412H.25V.25H13.1a1,1,0,1,1,0,2H2.25V40.412H47.03a5.018,5.018,0,0,0,5-5V7.25a5.018,5.018,0,0,0-5-5h-26.8a1,1,0,1,1,0-2h26.8a7.007,7.007,0,0,1,7,7V35.412A7.007,7.007,0,0,1,47.03,42.412Z" transform="translate(635.86 597)" fill="#4489ef"></path>
      <path id="Path_273" d="M27.141,35.578a19.756,19.756,0,0,1-5.914-.893l.6-1.909a17.759,17.759,0,0,0,5.316.8,16.971,16.971,0,0,0,9-2.486A12.717,12.717,0,0,0,41.415,24.9l1.874.7a13.475,13.475,0,0,1-2.4,4.035A15.861,15.861,0,0,1,37.2,32.79,18.967,18.967,0,0,1,27.141,35.578Z" transform="translate(635.86 597)" fill="#4489ef"></path>
      <path id="Path_274" d="M12.727,18.1l-1.9-.627a14.521,14.521,0,0,1,6.035-7.507A18.907,18.907,0,0,1,27.14,7.036a19.677,19.677,0,0,1,6.226.994l-.632,1.9a17.681,17.681,0,0,0-5.594-.892C20.414,9.036,14.487,12.761,12.727,18.1Z" transform="translate(635.86 597)" fill="#4489ef"></path>
      <path id="Path_275" d="M10.578,34.861q-.04,0-.081,0A1,1,0,0,1,9.58,33.78l.933-11.6a1,1,0,0,1,.626-.848l.005,0a1,1,0,0,1,1.035.18l8.706,7.719a1,1,0,0,1-1.327,1.5l-7.211-6.393-.773,9.606A1,1,0,0,1,10.578,34.861Z" transform="translate(635.86 597)" fill="#4489ef"></path>
      <path id="Line_205" d="M.373,3.86-.373,2,6.912-.928,7.658.928Z" transform="translate(646.675 625.089)" fill="#4489ef"></path>
      <path id="Path_276" d="M40.2,22.164a6.3,6.3,0,1,1,2.468-12.106,1,1,0,1,1-.782,1.841,4.3,4.3,0,1,0,2.274,5.645,1,1,0,0,1,1.84.784,6.317,6.317,0,0,1-5.8,3.836Z" transform="translate(635.86 597)" fill="#4489ef"></path>
      <path id="Line_206" d="M3.973,10.87a1,1,0,0,1-.928-.627L-.928.373a1,1,0,0,1,.554-1.3,1,1,0,0,1,1.3.554L4.9,9.5a1,1,0,0,1-.927,1.374Z" transform="translate(657.295 614.699)" fill="#4489ef"></path>
      <path id="Path_277" d="M23.783,23.475l-.745-1.856,4.2-1.687a1.5,1.5,0,0,0,.828-1.945l-.092-.227a1.5,1.5,0,0,0-1.947-.833l-4.225,1.7-.747-1.855,4.225-1.7a3.5,3.5,0,0,1,4.547,1.939l.092.227a3.5,3.5,0,0,1-1.936,4.55Z" transform="translate(635.86 597)" fill="#4489ef"></path>
      <path id="Path_278" d="M25.8,28.481l-.745-1.856,4.2-1.687a1.535,1.535,0,0,0,.8-2.013l-.1-.239a1.592,1.592,0,0,0-.857-.879,1.447,1.447,0,0,0-1.115-.02l-.748-1.855a3.433,3.433,0,0,1,2.647.034,3.579,3.579,0,0,1,1.929,1.973l.1.239A3.537,3.537,0,0,1,30,26.794Z" transform="translate(635.86 597)" fill="#4489ef"></path>
      <path id="Path_279" d="M47.029,48.192H.25V41.375h2v4.817H47.029a5.019,5.019,0,0,0,5-5V35.584h2v5.608A7.008,7.008,0,0,1,47.029,48.192Z" transform="translate(635.86 597)" fill="#4489ef"></path>
      <path id="Path_280" d="M47.029,53.609H.25V47.193h2v4.416H47.029a5.018,5.018,0,0,0,5-5V40.721h2v5.888A7.008,7.008,0,0,1,47.029,53.609Z" transform="translate(635.86 597)" fill="#4489ef"></path>
    </g>
  </symbol>
  <symbol xmlns="http://www.w3.org/2000/svg" viewBox="0 0 57.048 40.669" id="branch">
    <g id="Group_687" transform="translate(-173.211 -866.211)">
      <path id="Line_197" d="M4.219.8H0V-.8H4.219Z" transform="translate(207.967 881.922)" fill="#394553"></path>
      <path id="Line_198" d="M4.219.8H0V-.8H4.219Z" transform="translate(214.977 881.922)" fill="#394553"></path>
      <path id="Line_199" d="M4.219.8H0V-.8H4.219Z" transform="translate(207.967 891.168)" fill="#394553"></path>
      <path id="Line_200" d="M4.219.8H0V-.8H4.219Z" transform="translate(214.977 891.168)" fill="#394553"></path>
      <path id="Path_261" d="M65.227,28.583a3.914,3.914,0,1,1,2.767-1.147A3.919,3.919,0,0,1,65.227,28.583Zm0-6.228a2.312,2.312,0,1,0,1.636.677A2.316,2.316,0,0,0,65.227,22.355Z" transform="translate(161.118 861.876)" fill="#394553"></path>
      <path id="Line_201" d="M4.219.8H0V-.8H4.219Z" transform="translate(196.186 886.545)" fill="#394553"></path>
      <path id="Line_202" d="M20.009.8H0V-.8H20.009Z" transform="translate(203.236 886.545)" fill="#394553"></path>
      <path id="Path_262" d="M55.728,12.579A3.914,3.914,0,1,1,58.5,11.432,3.919,3.919,0,0,1,55.728,12.579Zm0-6.228a2.312,2.312,0,1,0,1.637.677A2.316,2.316,0,0,0,55.728,6.351Z" transform="translate(162.935 864.938)" fill="#394553"></path>
      <path id="Path_263" d="M15.027,20.587a3.914,3.914,0,1,1,3.914-3.914A3.919,3.919,0,0,1,15.027,20.587Zm0-6.228a2.314,2.314,0,1,0,2.314,2.314A2.316,2.316,0,0,0,15.027,14.359Z" transform="translate(170.721 863.406)" fill="#394553"></path>
      <path id="Path_264" d="M32.676,16.679H23.393v-1.6h8.986L39.634,8.8a.8.8,0,0,1,.523-.2l6.657,0v1.6l-6.359,0L33.2,16.484A.8.8,0,0,1,32.676,16.679Z" transform="translate(168.525 864.201)" fill="#394553"></path>
      <path id="Path_265" d="M55.728,36.76a3.914,3.914,0,1,1-3.914,3.915A3.888,3.888,0,0,1,55.728,36.76Zm0,6.228a2.314,2.314,0,1,0-2.313-2.313A2.3,2.3,0,0,0,55.728,42.988Z" transform="translate(162.935 858.814)" fill="#394553"></path>
      <path id="Path_266" d="M15.027,28.752a3.914,3.914,0,1,1-3.914,3.915A3.918,3.918,0,0,1,15.027,28.752Zm0,6.228a2.314,2.314,0,1,0-2.314-2.313A2.317,2.317,0,0,0,15.027,34.98Z" transform="translate(170.721 860.346)" fill="#394553"></path>
      <path id="Path_267" d="M46.815,40.679l-6.657,0a.8.8,0,0,1-.523-.2L32.378,34.2H23.393V32.6h9.284a.8.8,0,0,1,.524.2l7.256,6.283,6.359,0Z" transform="translate(168.525 859.61)" fill="#394553"></path>
      <path id="Path_268" d="M29.892.45A3.914,3.914,0,1,1,27.124,1.6,3.919,3.919,0,0,1,29.892.45Zm0,6.228A2.312,2.312,0,1,0,28.255,6,2.316,2.316,0,0,0,29.892,6.678Z" transform="translate(167.877 865.76)" fill="#394553"></path>
      <path id="Path_269" d="M4.364,8.278A3.915,3.915,0,0,1,1.6,1.6,3.914,3.914,0,1,1,4.364,8.278Zm0-6.228A2.314,2.314,0,1,0,6.678,4.363,2.3,2.3,0,0,0,4.364,2.05Z" transform="translate(172.761 865.76)" fill="#394553"></path>
      <path id="Line_203" d="M11.51.8H0V-.8H11.51Z" transform="translate(183.099 870.125)" fill="#394553"></path>
      <path id="Path_270" d="M29.892,41.058A3.914,3.914,0,1,1,27.124,42.2,3.919,3.919,0,0,1,29.892,41.058Zm0,6.228a2.312,2.312,0,1,0-1.637-.677A2.316,2.316,0,0,0,29.892,47.286Z" transform="translate(167.877 857.992)" fill="#394553"></path>
      <path id="Path_271" d="M4.364,48.887a3.914,3.914,0,1,1,3.914-3.915A3.888,3.888,0,0,1,4.364,48.887Zm0-6.228a2.314,2.314,0,1,0,2.313,2.313A2.3,2.3,0,0,0,4.364,42.659Z" transform="translate(172.761 857.992)" fill="#394553"></path>
      <path id="Line_204" d="M11.51.8H0V-.8H11.51Z" transform="translate(183.099 902.965)" fill="#394553"></path>
    </g>
  </symbol>
  <symbol xmlns="http://www.w3.org/2000/svg" viewBox="0 0 21.002 21.266" id="calendar">
    <g id="Group_691" transform="translate(-337.667 -2519.773)">
      <path id="Path_310" d="M20.1,25.322H2.4A1.657,1.657,0,0,1,.75,23.668V7.78A1.657,1.657,0,0,1,2.4,6.125H5.582v1H2.4a.655.655,0,0,0-.655.655V23.668a.655.655,0,0,0,.655.655H20.1a.655.655,0,0,0,.655-.655V7.78a.655.655,0,0,0-.655-.655H17.861v-1H20.1A1.657,1.657,0,0,1,21.752,7.78V23.668A1.657,1.657,0,0,1,20.1,25.322Z" transform="translate(336.917 2515.717)" fill="#5e6d83"></path>
      <path id="Line_240" d="M2.875.5H0v-1H2.875Z" transform="translate(349.726 2522.343)" fill="#5e6d83"></path>
      <path id="Line_241" d="M2.875.5H0v-1H2.875Z" transform="translate(344.674 2522.343)" fill="#5e6d83"></path>
      <path id="Line_242" d="M19.932.5H0v-1H19.932Z" transform="translate(338.202 2527.829)" fill="#5e6d83"></path>
      <path id="Line_243" d="M0,4.981a.5.5,0,0,1-.5-.5V0A.5.5,0,0,1,0-.5.5.5,0,0,1,.5,0V4.481A.5.5,0,0,1,0,4.981Z" transform="translate(342.577 2520.273)" fill="#5e6d83"></path>
      <path id="Line_244" d="M0,4.981a.5.5,0,0,1-.5-.5V0A.5.5,0,0,1,0-.5.5.5,0,0,1,.5,0V4.481A.5.5,0,0,1,0,4.981Z" transform="translate(352.681 2520.273)" fill="#5e6d83"></path>
      <path id="Line_245" d="M0,4.981a.5.5,0,0,1-.5-.5V0A.5.5,0,0,1,0-.5.5.5,0,0,1,.5,0V4.481A.5.5,0,0,1,0,4.981Z" transform="translate(347.629 2520.273)" fill="#5e6d83"></path>
      <path id="Rectangle_241" d="M-.5-.5H.831V.831H-.5Z" transform="translate(344.929 2533.946)" fill="#5e6d83"></path>
      <path id="Rectangle_243" d="M-.5-.5H.831V.831H-.5Z" transform="translate(341.855 2533.946)" fill="#5e6d83"></path>
      <path id="Rectangle_245" d="M-.5-.5H.831V.831H-.5Z" transform="translate(348.003 2533.946)" fill="#5e6d83"></path>
      <path id="Rectangle_247" d="M-.5-.5H.831V.831H-.5Z" transform="translate(351.077 2533.946)" fill="#5e6d83"></path>
      <path id="Rectangle_249" d="M-.5-.5H.831V.831H-.5Z" transform="translate(354.151 2533.946)" fill="#5e6d83"></path>
      <path id="Rectangle_251" d="M-.5-.5H.831V.831H-.5Z" transform="translate(344.929 2530.873)" fill="#5e6d83"></path>
      <path id="Rectangle_253" d="M-.5-.5H.831V.831H-.5Z" transform="translate(348.003 2530.873)" fill="#5e6d83"></path>
      <path id="Rectangle_255" d="M-.5-.5H.831V.831H-.5Z" transform="translate(351.077 2530.873)" fill="#5e6d83"></path>
      <path id="Rectangle_257" d="M-.5-.5H.831V.831H-.5Z" transform="translate(354.151 2530.873)" fill="#5e6d83"></path>
      <path id="Rectangle_259" d="M-.5-.5H.831V.831H-.5Z" transform="translate(344.929 2537.019)" fill="#5e6d83"></path>
      <path id="Rectangle_261" d="M-.5-.5H.831V.831H-.5Z" transform="translate(341.855 2537.019)" fill="#5e6d83"></path>
      <path id="Rectangle_263" d="M-.5-.5H.831V.831H-.5Z" transform="translate(348.003 2537.019)" fill="#5e6d83"></path>
      <path id="Rectangle_265" d="M-.5-.5H.831V.831H-.5Z" transform="translate(351.077 2537.019)" fill="#5e6d83"></path>
    </g>
  </symbol>
  <symbol xmlns="http://www.w3.org/2000/svg" viewBox="0 0 57.65 53.213" id="counter">
    <g id="Group_700" transform="translate(-157.539 -597.25)">
      <path id="Path_284" d="M2.136,45.168h54l1.825,8.295H.311Zm52.392,2H3.743L2.8,51.463H55.473Z" transform="translate(157.228 597)" fill="#4489ef"></path>
      <path id="Line_218" d="M24.35,1H0V-1H24.35Z" transform="translate(189.213 604.724)" fill="#4489ef"></path>
      <path id="Line_219" d="M9.729,1H0V-1H9.729Z" transform="translate(159.013 604.724)" fill="#4489ef"></path>
      <path id="Line_220" d="M0,5.507a1,1,0,0,1-1-1V0A1,1,0,0,1,0-1,1,1,0,0,1,1,0V4.507A1,1,0,0,1,0,5.507Z" transform="translate(173.029 602.47)" fill="#4489ef"></path>
      <path id="Line_221" d="M0,5.507a1,1,0,0,1-1-1V0A1,1,0,0,1,0-1,1,1,0,0,1,1,0V4.507A1,1,0,0,1,0,5.507Z" transform="translate(179.023 602.47)" fill="#4489ef"></path>
      <path id="Line_222" d="M0,5.507a1,1,0,0,1-1-1V0A1,1,0,0,1,0-1,1,1,0,0,1,1,0V4.507A1,1,0,0,1,0,5.507Z" transform="translate(184.996 602.47)" fill="#4489ef"></path>
      <path id="Line_223" d="M9.718,1H0V-1H9.718Z" transform="translate(203.845 618.277)" fill="#4489ef"></path>
      <path id="Line_224" d="M12.061,1H0V-1H12.061Z" transform="translate(183.233 618.277)" fill="#4489ef"></path>
      <path id="Line_225" d="M9.729,1H0V-1H9.729Z" transform="translate(159.013 618.277)" fill="#4489ef"></path>
      <path id="Line_226" d="M0,5.507a1,1,0,0,1-1-1V0A1,1,0,0,1,0-1,1,1,0,0,1,1,0V4.507A1,1,0,0,1,0,5.507Z" transform="translate(199.546 616.023)" fill="#4489ef"></path>
      <path id="Line_227" d="M9.653,1H0V-1H9.653Z" transform="translate(203.91 631.806)" fill="#4489ef"></path>
      <path id="Line_228" d="M24.343,1H0V-1H24.343Z" transform="translate(159.012 631.806)" fill="#4489ef"></path>
      <path id="Line_229" d="M0,40.867a1,1,0,0,1-1-1V0A1,1,0,0,1,0-1,1,1,0,0,1,1,0V39.867A1,1,0,0,1,0,40.867Z" transform="translate(163.865 598.25)" fill="#4489ef"></path>
      <path id="Line_230" d="M0,45.612a1,1,0,0,1-1-1V0A1,1,0,0,1,0-1,1,1,0,0,1,1,0V44.612A1,1,0,0,1,0,45.612Z" transform="translate(208.833 598.25)" fill="#4489ef"></path>
      <path id="Line_231" d="M0,5.507a1,1,0,0,1-1-1V0A1,1,0,0,1,0-1,1,1,0,0,1,1,0V4.507A1,1,0,0,1,0,5.507Z" transform="translate(187.58 629.552)" fill="#4489ef"></path>
      <path id="Line_232" d="M0,5.507a1,1,0,0,1-1-1V0A1,1,0,0,1,0-1,1,1,0,0,1,1,0V4.507A1,1,0,0,1,0,5.507Z" transform="translate(193.574 629.552)" fill="#4489ef"></path>
      <path id="Line_233" d="M0,5.507a1,1,0,0,1-1-1V0A1,1,0,0,1,0-1,1,1,0,0,1,1,0V4.507A1,1,0,0,1,0,5.507Z" transform="translate(199.546 629.552)" fill="#4489ef"></path>
      <path id="Line_234" d="M0,5.507a1,1,0,0,1-1-1V0A1,1,0,0,1,0-1,1,1,0,0,1,1,0V4.507A1,1,0,0,1,0,5.507Z" transform="translate(173.029 616.023)" fill="#4489ef"></path>
      <path id="Line_235" d="M0,5.507a1,1,0,0,1-1-1V0A1,1,0,0,1,0-1,1,1,0,0,1,1,0V4.507A1,1,0,0,1,0,5.507Z" transform="translate(179.023 616.023)" fill="#4489ef"></path>
    </g>
  </symbol>
  <symbol xmlns="http://www.w3.org/2000/svg" viewBox="0 0 20.764 21.387" id="dialog">
    <g id="Group_535" transform="translate(-723.213 3111.129)">
      <path id="Line_266" d="M11.65.5H0v-1H11.65Z" transform="translate(727.77 -3106.297)" fill="#5e6d83"></path>
      <path id="Line_267" d="M11.65.5H0v-1H11.65Z" transform="translate(727.77 -3103.169)" fill="#5e6d83"></path>
      <path id="Line_268" d="M6.436.5H0v-1H6.436Z" transform="translate(727.77 -3100.04)" fill="#5e6d83"></path>
      <path id="Path_345" d="M5.663,22.137a.5.5,0,0,1-.5-.5V16.688H3.1A2.35,2.35,0,0,1,.75,14.34V3.1A2.349,2.349,0,0,1,3.1.75H19.167A2.349,2.349,0,0,1,21.514,3.1V14.34a2.35,2.35,0,0,1-2.347,2.347h-6.03a.5.5,0,0,1,0-1h6.03a1.348,1.348,0,0,0,1.347-1.347V3.1A1.348,1.348,0,0,0,19.167,1.75H3.1A1.348,1.348,0,0,0,1.75,3.1V14.34A1.348,1.348,0,0,0,3.1,15.688H5.663a.5.5,0,0,1,.5.5v4.144l4.022-4.478a.5.5,0,1,1,.744.668L6.035,21.971A.5.5,0,0,1,5.663,22.137Z" transform="translate(722.463 -3111.879)" fill="#5e6d83"></path>
    </g>
  </symbol>
  <symbol xmlns="http://www.w3.org/2000/svg" viewBox="0 0 31.098 32.04" id="dialog_active">
    <g id="Group_702" transform="translate(-915.4 -512.096)">
      <path id="Line_266" d="M17.624.6H0V-.6H17.624Z" transform="translate(922.137 519.25)" fill="#4489ef"></path>
      <path id="Line_267" d="M17.624.6H0V-.6H17.624Z" transform="translate(922.137 523.982)" fill="#4489ef"></path>
      <path id="Line_268" d="M9.736.6H0V-.6H9.736Z" transform="translate(922.137 528.714)" fill="#4489ef"></path>
      <path id="Path_345" d="M7.926,32.69a.6.6,0,0,1-.6-.6V24.447H4.043A3.4,3.4,0,0,1,.65,21.053V4.044A3.4,3.4,0,0,1,4.043.65H28.354a3.4,3.4,0,0,1,3.393,3.394V21.053a3.4,3.4,0,0,1-3.393,3.395H19.233a.6.6,0,0,1,0-1.2h9.122a2.2,2.2,0,0,0,2.193-2.195V4.044A2.2,2.2,0,0,0,28.354,1.85H4.043A2.2,2.2,0,0,0,1.85,4.044V21.053a2.2,2.2,0,0,0,2.193,2.195H7.926a.6.6,0,0,1,.6.6v6.677l6.358-7.078a.6.6,0,0,1,.893.8l-7.4,8.243A.6.6,0,0,1,7.926,32.69Z" transform="translate(914.75 511.446)" fill="#4489ef"></path>
    </g>
  </symbol>
  <symbol xmlns="http://www.w3.org/2000/svg" viewBox="0 0 52.234 43.159" id="dialogs">
    <g id="Group_694" transform="translate(-689.3 -2617.3)">
      <path id="Line_263" d="M17.531.7H0V-.7H17.531Z" transform="translate(696.148 2635.044)" fill="#1c3150"></path>
      <path id="Line_264" d="M17.531.7H0V-.7H17.531Z" transform="translate(696.148 2639.751)" fill="#1c3150"></path>
      <path id="Line_265" d="M9.684.7H0V-.7H9.684Z" transform="translate(696.148 2644.459)" fill="#1c3150"></path>
      <path id="Path_339" d="M53.918,33.207a.7.7,0,0,1-.533-.246L46.258,24.6h-3.95V23.2h4.273a.7.7,0,0,1,.533.246l6.1,7.165V23.9a.7.7,0,0,1,.7-.7h2.006a3.416,3.416,0,0,0,3.413-3.412V5.363A3.417,3.417,0,0,0,55.925,1.95h-21.6a3.417,3.417,0,0,0-3.413,3.413V8.556h-1.4V5.363A4.818,4.818,0,0,1,34.322.55h21.6a4.818,4.818,0,0,1,4.813,4.813V19.783A4.818,4.818,0,0,1,55.925,24.6H54.619v7.912a.7.7,0,0,1-.7.7Z" transform="translate(680.796 2616.75)" fill="#1c3150"></path>
      <path id="Path_340" d="M7.369,47.685a.7.7,0,0,1-.7-.7V39.073H5.361A4.817,4.817,0,0,1,.55,34.261V19.841a4.817,4.817,0,0,1,4.811-4.813h21.6a4.818,4.818,0,0,1,4.812,4.813v14.42a4.818,4.818,0,0,1-4.812,4.813H18.452a.7.7,0,1,1,0-1.4h8.514a3.416,3.416,0,0,0,3.412-3.413V19.841a3.416,3.416,0,0,0-3.412-3.413H5.361A3.416,3.416,0,0,0,1.95,19.841v14.42a3.416,3.416,0,0,0,3.411,3.413H7.368a.7.7,0,0,1,.7.7v6.669l5.893-7.116a.7.7,0,1,1,1.078.893L7.908,47.432A.7.7,0,0,1,7.369,47.685Z" transform="translate(688.75 2612.773)" fill="#1c3150"></path>
      <path id="Path_342" d="M49.595,15.318a1.265,1.265,0,1,1-1.266,1.265A1.266,1.266,0,0,1,49.595,15.318Z" transform="translate(675.627 2612.694)" fill="#1c3150"></path>
      <path id="Path_344" d="M58.009,15.318a1.265,1.265,0,1,1-1.266,1.265A1.266,1.266,0,0,1,58.009,15.318Z" transform="translate(673.316 2612.694)" fill="#1c3150"></path>
    </g>
  </symbol>
  <symbol xmlns="http://www.w3.org/2000/svg" viewBox="0 0 178.712 147.023" id="dialogs_active">
    <g id="Group_710" transform="translate(-881.646 -6807.502)">
      <path id="Line_263" d="M61.218.6H0V-.6H61.218Z" transform="translate(903.716 6867.62)" fill="#4489ef"></path>
      <path id="Line_264" d="M61.218.6H0V-.6H61.218Z" transform="translate(903.716 6884.058)" fill="#4489ef"></path>
      <path id="Line_265" d="M33.817.6H0V-.6H33.817Z" transform="translate(903.715 6900.498)" fill="#4489ef"></path>
      <path id="Path_339" d="M113,111a.6.6,0,0,1-.457-.211L87.1,80.928H72.458v-1.2H87.379a.6.6,0,0,1,.457.211L112.4,108.772l0-28.444a.6.6,0,0,1,.6-.6h7A13.8,13.8,0,0,0,133.77,65.969V15.612A13.8,13.8,0,0,0,120.009,1.85H44.571A13.8,13.8,0,0,0,30.809,15.612v11.15h-1.2V15.612A14.784,14.784,0,0,1,30.79,9.8a15.1,15.1,0,0,1,7.969-7.969A14.783,14.783,0,0,1,44.571.65h75.438a14.787,14.787,0,0,1,5.813,1.181A15.095,15.095,0,0,1,133.79,9.8a14.787,14.787,0,0,1,1.18,5.811V65.969a14.784,14.784,0,0,1-1.18,5.811,15.091,15.091,0,0,1-7.969,7.968,14.791,14.791,0,0,1-5.812,1.18h-6.4l0,29.473a.6.6,0,0,1-.6.6Z" transform="translate(925.388 6806.853)" fill="#4489ef"></path>
      <path id="Path_340" d="M22.618,125.479a.6.6,0,0,1-.6-.6l0-29.473H15.607A14.775,14.775,0,0,1,9.8,94.225,15.1,15.1,0,0,1,1.83,86.256,14.788,14.788,0,0,1,.65,80.444V30.09a14.788,14.788,0,0,1,1.18-5.811A15.1,15.1,0,0,1,9.8,16.309a14.775,14.775,0,0,1,5.81-1.181H91.05a14.777,14.777,0,0,1,5.81,1.181,15.1,15.1,0,0,1,7.968,7.969,14.784,14.784,0,0,1,1.181,5.811V80.444a14.784,14.784,0,0,1-1.181,5.811,15.1,15.1,0,0,1-7.968,7.969,14.777,14.777,0,0,1-5.81,1.181H61.318a.6.6,0,0,1,0-1.2H91.05a13.8,13.8,0,0,0,13.759-13.762V30.09A13.8,13.8,0,0,0,91.05,16.328H15.607A13.8,13.8,0,0,0,1.85,30.09V80.444A13.8,13.8,0,0,0,15.607,94.206h7.009a.6.6,0,0,1,.6.6l0,28.408L47.059,94.423a.6.6,0,0,1,.924.765l-24.9,30.073A.6.6,0,0,1,22.618,125.479Z" transform="translate(880.996 6829.046)" fill="#4489ef"></path>
      <path id="Path_341" d="M51,20.564a2.573,2.573,0,1,1,2.573-2.573A2.577,2.577,0,0,1,51,20.564Zm0-3.946a1.373,1.373,0,1,0,1.373,1.373A1.376,1.376,0,0,0,51,16.618Z" transform="translate(954.237 6829.491)" fill="#4489ef"></path>
      <path id="Path_342" d="M51,20.564a2.573,2.573,0,1,1,2.573-2.573A2.577,2.577,0,0,1,51,20.564Zm0-3.946a1.373,1.373,0,1,0,1.373,1.373A1.376,1.376,0,0,0,51,16.618Z" transform="translate(954.237 6829.491)" fill="#4489ef"></path>
      <path id="Path_343" d="M59.419,20.564a2.573,2.573,0,1,1,2.573-2.573A2.577,2.577,0,0,1,59.419,20.564Zm0-3.946a1.373,1.373,0,1,0,1.373,1.373A1.376,1.376,0,0,0,59.419,16.618Z" transform="translate(967.135 6829.491)" fill="#4489ef"></path>
    </g>
  </symbol>
  <symbol xmlns="http://www.w3.org/2000/svg" viewBox="0 0 22.595 29.752" id="document_active">
    <g id="Group_708" transform="translate(-352.624 -5505.5)">
      <path id="Line_257" d="M12.048.5H0v-1H12.048Z" transform="translate(357.897 5520.229)" fill="#4489ef"></path>
      <path id="Line_258" d="M12.048.5H0v-1H12.048Z" transform="translate(357.897 5524.452)" fill="#4489ef"></path>
      <path id="Line_259" d="M12.048.5H0v-1H12.048Z" transform="translate(357.897 5528.675)" fill="#4489ef"></path>
      <path id="Path_330" d="M22.845,30.5H1.25a.5.5,0,0,1-.5-.5V6.828A.5.5,0,0,1,.9,6.475L6.476.9A.5.5,0,0,1,6.83.75H22.845a.5.5,0,0,1,.5.5V30A.5.5,0,0,1,22.845,30.5ZM1.75,29.5H22.345V1.75H7.037L1.75,7.035Z" transform="translate(351.874 5504.75)" fill="#4489ef"></path>
      <path id="Path_331" d="M10.922,10.963H6.607v-1H9.922V6.653h1Z" transform="translate(349.191 5502.044)" fill="#4489ef"></path>
    </g>
  </symbol>
  <symbol xmlns="http://www.w3.org/2000/svg" viewBox="0 0 34.046 19.228" id="eye">
    <g id="Group_692" transform="translate(-235.764 -1931.605)">
      <path id="Path_356" d="M27.639,17.225A8.262,8.262,0,0,1,22.271,2.683l.65.76a7.26,7.26,0,1,0,9.587.134l.671-.742a8.262,8.262,0,0,1-5.54,14.389Z" transform="translate(225.149 1929.895)" fill="#5e6d83"></path>
      <path id="Path_357" d="M32.757,15.7a3.715,3.715,0,1,1,0-7.43.5.5,0,0,1,0,1,2.715,2.715,0,1,0,2.714,2.715.5.5,0,1,1,1,0A3.718,3.718,0,0,1,32.757,15.7Z" transform="translate(220.03 1926.872)" fill="#5e6d83"></path>
      <path id="Path_358" d="M17.773.75A16.716,16.716,0,0,1,24.4,2.215a25.824,25.824,0,0,1,5.357,3.194,31.3,31.3,0,0,1,4.925,4.64.5.5,0,0,1,0,.63,31.3,31.3,0,0,1-4.925,4.64A25.824,25.824,0,0,1,24.4,18.513a16.716,16.716,0,0,1-6.63,1.465,16.374,16.374,0,0,1-6.634-1.5A25.7,25.7,0,0,1,5.782,15.2,31.664,31.664,0,0,1,.858,10.44a.5.5,0,0,1,.008-.63A30.946,30.946,0,0,1,5.791,5.288a25.973,25.973,0,0,1,5.356-3.112A17.079,17.079,0,0,1,17.773.75Zm15.865,9.614a32.032,32.032,0,0,0-4.5-4.174,24.8,24.8,0,0,0-5.141-3.063,15.719,15.719,0,0,0-6.22-1.378A16.088,16.088,0,0,0,11.536,3.1,24.975,24.975,0,0,0,6.388,6.091a31.638,31.638,0,0,0-4.48,4.047,32.376,32.376,0,0,0,4.508,4.286,24.667,24.667,0,0,0,5.14,3.141,15.377,15.377,0,0,0,6.217,1.412A15.725,15.725,0,0,0,24.006,17.6a24.827,24.827,0,0,0,5.147-3.072A31.962,31.962,0,0,0,33.638,10.364Z" transform="translate(235.014 1930.855)" fill="#5e6d83"></path>
    </g>
  </symbol>
  <symbol xmlns="http://www.w3.org/2000/svg" viewBox="0 0 8 8" id="filter_close">
    <path id="Union_14" d="M-1388.646-38.939l-3.147-3.147-3.147,3.147a.5.5,0,0,1-.707,0,.5.5,0,0,1,0-.707l3.147-3.146-3.147-3.147a.5.5,0,0,1,0-.707.5.5,0,0,1,.707,0l3.147,3.146,3.147-3.146a.5.5,0,0,1,.706,0,.5.5,0,0,1,0,.707l-3.147,3.147,3.147,3.146a.5.5,0,0,1,0,.707.5.5,0,0,1-.353.146A.5.5,0,0,1-1388.646-38.939Z" transform="translate(1395.793 46.793)" fill="#5e6d83"></path>
  </symbol>
  <symbol xmlns="http://www.w3.org/2000/svg" viewBox="0 0 47.162 38.817" id="group">
    <g id="Group_695" transform="translate(-692.3 -2824.3)">
      <path id="Path_315" d="M31.449,55.391a4.457,4.457,0,0,1-4.423-4.48v-1.4a4.424,4.424,0,1,1,8.846,0v1.4A4.457,4.457,0,0,1,31.449,55.391Zm0-8.96a3.055,3.055,0,0,0-3.023,3.08v1.4a3.024,3.024,0,1,0,6.046,0v-1.4A3.055,3.055,0,0,0,31.449,46.431Z" transform="translate(677.365 2796.722)" fill="#1c3150"></path>
      <path id="Path_316" d="M35.663,67.544h-1.4v-3.85a3.412,3.412,0,0,0-1.11-2.659,4.364,4.364,0,0,0-2.932-.966H23.757a.7.7,0,0,1-.243-.043,18.75,18.75,0,0,1-4.339-2.574,76.652,76.652,0,0,1-6.767-6.509c-.961,1.2-1.015,2.607.951,5.147l5.973,7.444a.7.7,0,0,1,.154.438v3.572h-1.4V64.218l-5.823-7.257-.007-.01a7.7,7.7,0,0,1-1.889-4.016,4.35,4.35,0,0,1,1.55-3.523.7.7,0,0,1,1,.027,86.774,86.774,0,0,0,7.1,6.9,18.718,18.718,0,0,0,3.871,2.333h6.329a5.734,5.734,0,0,1,3.855,1.314,4.771,4.771,0,0,1,1.587,3.711Z" transform="translate(681.943 2795.573)" fill="#1c3150"></path>
      <path id="Path_317" d="M48.181,55.391a4.457,4.457,0,0,1-4.423-4.48v-1.4a4.424,4.424,0,1,1,8.846,0v1.4A4.457,4.457,0,0,1,48.181,55.391Zm0-8.96a3.055,3.055,0,0,0-3.023,3.08v1.4a3.024,3.024,0,1,0,6.046,0v-1.4A3.055,3.055,0,0,0,48.181,46.431Z" transform="translate(672.769 2796.722)" fill="#1c3150"></path>
      <path id="Path_318" d="M57.758,71.124h-1.4v-3.85a3.411,3.411,0,0,0-1.11-2.659,4.366,4.366,0,0,0-2.932-.966h-5v-1.4h5c3.255,0,5.442,2.019,5.442,5.025Z" transform="translate(671.985 2791.993)" fill="#1c3150"></path>
      <path id="Path_319" d="M53,49.561H51.6V41.847a.7.7,0,0,1,.163-.449L60,31.544c2.03-2.626,2.043-3.977,1.123-5.137l-9.885,9.366a.7.7,0,0,1-.481.192H43.042a.7.7,0,0,1-.481-.192l-9.886-9.366c-.921,1.161-.909,2.512,1.122,5.137l6.181,7.391-1.074.9-6.189-7.4-.016-.02a8.457,8.457,0,0,1-1.981-3.964,4.075,4.075,0,0,1,1.437-3.541.7.7,0,0,1,.968,0l10.2,9.663h7.155l10.2-9.663a.7.7,0,0,1,.968,0c2.653,2.565,1.214,5.233-.545,7.5l-.016.021L53,42.1Z" transform="translate(676.359 2802.303)" fill="#1c3150"></path>
      <path id="Path_320" d="M51.353,31.33a4.457,4.457,0,0,1-4.423-4.48v-1.4a4.424,4.424,0,1,1,8.846,0v1.4A4.457,4.457,0,0,1,51.353,31.33Zm0-8.961a3.055,3.055,0,0,0-3.023,3.08v1.4a3.024,3.024,0,1,0,6.046,0v-1.4A3.055,3.055,0,0,0,51.353,22.369Z" transform="translate(671.898 2803.331)" fill="#1c3150"></path>
    </g>
  </symbol>
  <symbol xmlns="http://www.w3.org/2000/svg" viewBox="0 0 22.968 22.828" id="fb">
    <path id="Path_40" d="M1048.484,197a11.485,11.485,0,0,0-1.794,22.828V211.8h-2.916v-3.32h2.916v-2.53c0-2.878,1.714-4.468,4.338-4.468a17.657,17.657,0,0,1,2.571.224v2.826h-1.448a1.66,1.66,0,0,0-1.871,1.793v2.154h3.185l-.509,3.32h-2.676v8.025A11.485,11.485,0,0,0,1048.484,197Z" transform="translate(-1037 -197)" fill="#1c3150"></path>
  </symbol>
  <symbol xmlns="http://www.w3.org/2000/svg" viewBox="0 0 18.043 15.685" id="heart_active">
    <g id="Group_697" transform="translate(-1099.4 -2135.4)">
      <path id="Path_306" d="M21.684,10.768a.6.6,0,0,1-.406-.158,2.086,2.086,0,0,1-.693-1.524,1.945,1.945,0,0,1,.637-1.472A2.092,2.092,0,0,1,22,7.165a.6.6,0,0,1,.37,1.142.9.9,0,0,0-.336.191.75.75,0,0,0-.249.575.9.9,0,0,0,.3.653.6.6,0,0,1-.406,1.042Z" transform="translate(1081.815 2131.264)" fill="#4489ef"></path>
      <path id="Path_307" d="M23.368,16.335a.6.6,0,0,1-.424-.175L15.819,9.044a4.99,4.99,0,0,1-1.472-3.5A4.818,4.818,0,0,1,19.194.65a4.984,4.984,0,0,1,3.547,1.472l.625.625L24,2.12A4.984,4.984,0,0,1,27.544.65a4.818,4.818,0,0,1,4.846,4.9,4.991,4.991,0,0,1-1.471,3.5l-7.128,7.115A.6.6,0,0,1,23.368,16.335ZM19.194,1.85a3.618,3.618,0,0,0-3.646,3.684A3.8,3.8,0,0,0,16.667,8.2l6.7,6.691,6.7-6.692A3.8,3.8,0,0,0,31.19,5.534,3.618,3.618,0,0,0,27.544,1.85a3.793,3.793,0,0,0-2.7,1.12L23.788,4.02a.6.6,0,0,1-.847,0L21.893,2.97A3.792,3.792,0,0,0,19.194,1.85Z" transform="translate(1085.053 2134.75)" fill="#4489ef"></path>
    </g>
  </symbol>
  <symbol xmlns="http://www.w3.org/2000/svg" viewBox="0 0 26.19 22.69" id="heart">
    <g id="Group_550" transform="translate(0.6 0.6)">
      <path id="Path_306" d="M21.684,12.826a.6.6,0,0,1-.517-.3,4.665,4.665,0,0,1-.582-2.31,4.341,4.341,0,0,1,.526-2.2,2.23,2.23,0,0,1,.766-.8.6.6,0,0,1,.616,1.03,1.071,1.071,0,0,0-.348.381,3.14,3.14,0,0,0-.36,1.582,3.457,3.457,0,0,0,.416,1.708.6.6,0,0,1-.516.9Z" transform="translate(-17.366 -3.765)" fill="#1c3150"></path>
      <path id="Path_307" d="M27.44,23.34a.6.6,0,0,1-.424-.175L16.446,12.609a7.115,7.115,0,0,1-2.1-4.988A6.858,6.858,0,0,1,21.248.65a7.107,7.107,0,0,1,5.058,2.1L27.438,3.88,28.58,2.747A7.107,7.107,0,0,1,33.637.65a6.858,6.858,0,0,1,6.9,6.971,7.116,7.116,0,0,1-2.1,4.988L27.864,23.165A.6.6,0,0,1,27.44,23.34ZM21.248,1.85a5.658,5.658,0,0,0-5.7,5.759,5.922,5.922,0,0,0,1.746,4.151L27.44,21.893,37.591,11.759a5.922,5.922,0,0,0,1.746-4.151,5.659,5.659,0,0,0-5.7-5.759A5.916,5.916,0,0,0,29.427,3.6L27.859,5.153a.6.6,0,0,1-.847,0L25.457,3.6A5.915,5.915,0,0,0,21.248,1.85Z" transform="translate(-14.947 -1.25)" fill="#1c3150"></path>
    </g>
  </symbol>
  <symbol xmlns="http://www.w3.org/2000/svg" viewBox="0 0 20.577 20.531" id="in">
    <path id="Path_8" d="M637.5,262.272v10.059h4.823V258.644h-4.777v3.629Zm20.44.551c-.322-2.572-1.516-4.226-5.007-4.226-2.067,0-3.445.735-4,1.837h-.046V258.6h-3.812v13.688h4v-6.8c0-1.791.367-3.491,2.526-3.491,2.2,0,2.388,2.021,2.388,3.629v6.66h4.088v-7.533q-.069-1.033-.138-1.929ZM639.888,251.8a2.388,2.388,0,1,0,2.388,2.388,2.344,2.344,0,0,0-2.388-2.388Z" transform="translate(-637.5 -251.8)" fill="#1c3150" fill-rule="evenodd"></path>
  </symbol>
  <symbol xmlns="http://www.w3.org/2000/svg" viewBox="0 0 19 19" id="info">
    <g id="Group_138" transform="translate(-328 -973)">
      <path id="Path_144" d="M1.178.925V-7.445H2.365V.925Zm.59-9.66A.859.859,0,0,1,1.138-9a.844.844,0,0,1-.263-.616.876.876,0,0,1,.263-.635.851.851,0,0,1,.63-.268.847.847,0,0,1,.626.268.876.876,0,0,1,.263.635A.844.844,0,0,1,2.394-9,.855.855,0,0,1,1.768-8.735Z" transform="translate(335.876 987.517)" fill="#5e6d83"></path>
      <path id="Ellipse_4" d="M9.5,1A8.5,8.5,0,1,0,18,9.5,8.51,8.51,0,0,0,9.5,1m0-1A9.5,9.5,0,1,1,0,9.5,9.5,9.5,0,0,1,9.5,0Z" transform="translate(328 973)" fill="#5e6d83"></path>
    </g>
  </symbol>
  <symbol id="instagram" xmlns="http://www.w3.org/2000/svg" viewBox="0 0 23.103 23.104">
    <g id="Group_2" transform="translate(0 0)">
      <path id="Path_37" d="M0,11.551V6.593A6.5,6.5,0,0,1,4.861.24,7.159,7.159,0,0,1,6.594,0c3.273,0,6.546.048,9.771,0A6.606,6.606,0,0,1,23.1,6.593V16.653a6.459,6.459,0,0,1-5.391,6.353,9.4,9.4,0,0,1-1.107.1H6.45A6.533,6.533,0,0,1,0,16.556Zm2.214,0v4.958a2.343,2.343,0,0,0,.048.578A4.323,4.323,0,0,0,6.594,20.84h9.963a6.523,6.523,0,0,0,.963-.1,4.284,4.284,0,0,0,3.417-4.236V6.593a2.343,2.343,0,0,0-.048-.578,4.325,4.325,0,0,0-4.332-3.8H6.642a4.335,4.335,0,0,0-4.38,4.38C2.214,8.23,2.214,9.914,2.214,11.551Z" transform="translate(0 0.001)" fill="#1c3150"></path>
      <path id="Path_38" d="M23.533,17.516A6.016,6.016,0,1,1,17.516,11.5,6.019,6.019,0,0,1,23.533,17.516Zm-6.016-3.8a3.8,3.8,0,0,0-.048,7.6,3.8,3.8,0,0,0,.048-7.6Z" transform="translate(-5.965 -5.964)" fill="#1c3150"></path>
      <path id="Path_39" d="M35.3,11.192a1.4,1.4,0,1,1,1.348-1.444A1.369,1.369,0,0,1,35.3,11.192Z" transform="translate(-17.583 -4.356)" fill="#1c3150"></path>
    </g>
  </symbol>
  <symbol id="left" xmlns="http://www.w3.org/2000/svg" viewBox="0 0 19.807 37.639">
    <path id="Path_20" d="M44.481,37.639a.988.988,0,0,0,.7-1.686L28.045,18.819,45.18,1.686a.988.988,0,1,0-1.4-1.4L25.951,18.121a.989.989,0,0,0,0,1.4L43.782,37.349a.984.984,0,0,0,.7.29" transform="translate(-25.662 0)" fill="#2c2f35"></path>
  </symbol>
  <symbol xmlns="http://www.w3.org/2000/svg" viewBox="0 0 22.403 21.167" id="like">
    <g id="Group_534" transform="translate(-815.767 2891.25)">
      <path id="Path_355" d="M24.584,21.047H13.445v-1H24.584a1.449,1.449,0,0,0,1.462-1.13c.063-.319,1.534-7.774,1.614-8.254A2.309,2.309,0,0,0,27.6,9.288a1.03,1.03,0,0,0-.988-.47H20.67l.362-.724a11.208,11.208,0,0,0,.646-5.21V2.874a1.26,1.26,0,0,0-.4-.893,1.164,1.164,0,0,0-.746-.23l-.025,0h-.025a.915.915,0,0,0-.824.37,1.064,1.064,0,0,0-.162.417,7.058,7.058,0,0,1-2.451,5.521A9.144,9.144,0,0,1,13.721,9.88l-.286-.958C14.623,8.567,18.5,7.057,18.5,2.511l0-.039A1.879,1.879,0,0,1,20.463.754a2.141,2.141,0,0,1,1.452.454,2.21,2.21,0,0,1,.756,1.565,13.067,13.067,0,0,1-.443,5.045H26.6a1.979,1.979,0,0,1,1.858.964,3.11,3.11,0,0,1,.186,2.045c-.084.5-1.558,7.975-1.621,8.292l0,.018A2.456,2.456,0,0,1,24.584,21.047Z" transform="translate(809.436 -2892)" fill="#5e6d83"></path>
      <path id="Rectangle_286" d="M-.5-.5H4.893V12.873H-.5ZM3.893.5H.5V11.873H3.893Z" transform="translate(816.267 -2882.957)" fill="#5e6d83"></path>
    </g>
  </symbol>
  <symbol xmlns="http://www.w3.org/2000/svg" viewBox="0 0 23.271 23.627" id="magnifier">
    <g id="Group_553" transform="translate(-1456.165 -62.165)">
      <path id="Path_326" d="M11.392,21.32A10.556,10.556,0,0,1,.65,10.987,10.557,10.557,0,0,1,11.392.65a10.9,10.9,0,0,1,7.592,3.019,10.058,10.058,0,0,1,0,14.634A10.9,10.9,0,0,1,11.392,21.32Zm0-19.47A9.357,9.357,0,0,0,1.85,10.987a9.355,9.355,0,0,0,9.542,9.133,9.359,9.359,0,0,0,9.549-9.133A9.36,9.36,0,0,0,11.392,1.85Z" transform="translate(1455.515 61.515)" fill="#1c3150"></path>
      <path id="Line_251" d="M5.291,6.07a.6.6,0,0,1-.431-.183L-.431.417A.6.6,0,0,1-.417-.431a.6.6,0,0,1,.848.014l5.291,5.47A.6.6,0,0,1,5.291,6.07Z" transform="translate(1473.545 79.722)" fill="#1c3150"></path>
    </g>
  </symbol>
  <symbol xmlns="http://www.w3.org/2000/svg" viewBox="0 0 22.895 20" id="list">
    <g id="Group_576" transform="translate(-806.605 -524.5)">
      <path id="Line_279" d="M18.895,2H0A2,2,0,0,1-2,0,2,2,0,0,1,0-2H18.895a2,2,0,0,1,2,2A2,2,0,0,1,18.895,2Z" transform="translate(808.605 526.5)" fill="#4489ef"></path>
      <path id="Line_280" d="M18.895,2H0A2,2,0,0,1-2,0,2,2,0,0,1,0-2H18.895a2,2,0,0,1,2,2A2,2,0,0,1,18.895,2Z" transform="translate(808.605 534.5)" fill="#4489ef"></path>
      <path id="Line_281" d="M18.895,2H0A2,2,0,0,1-2,0,2,2,0,0,1,0-2H18.895a2,2,0,0,1,2,2A2,2,0,0,1,18.895,2Z" transform="translate(808.605 542.5)" fill="#4489ef"></path>
    </g>
  </symbol>
  <symbol xmlns="http://www.w3.org/2000/svg" viewBox="0 0 23.418 12.277" id="mail">
    <g id="Group_706" transform="translate(-348.862 -1257.861)">
      <path id="Path_346" d="M36.164,13.027H22.112a.5.5,0,0,1,0-1H36.164a.529.529,0,0,0,.488-.424l1.309-9.35L30.374,7.736a.5.5,0,0,1-.632-.037l-6.6-6.08A.5.5,0,0,1,23.48.75H37.743a1.231,1.231,0,0,1,1.238,1.423l-1.339,9.569A1.519,1.519,0,0,1,36.164,13.027ZM24.761,1.75l5.358,4.936,6.83-4.936Z" transform="translate(333.285 1257.111)" fill="#4489ef"></path>
      <path id="Line_269" d="M4.093.5H0A.5.5,0,0,1-.5,0,.5.5,0,0,1,0-.5H4.093a.5.5,0,0,1,.5.5A.5.5,0,0,1,4.093.5Z" transform="translate(355.414 1266.672)" fill="#4489ef"></path>
      <path id="Line_270" d="M6.473.5H0A.5.5,0,0,1-.5,0,.5.5,0,0,1,0-.5H6.473a.5.5,0,0,1,.5.5A.5.5,0,0,1,6.473.5Z" transform="translate(351.683 1264.125)" fill="#4489ef"></path>
      <path id="Line_271" d="M1.016.5H0A.5.5,0,0,1-.5,0,.5.5,0,0,1,0-.5H1.016a.5.5,0,0,1,.5.5A.5.5,0,0,1,1.016.5Z" transform="translate(349.362 1264.125)" fill="#4489ef"></path>
      <path id="Line_272" d="M1.015.5H0A.5.5,0,0,1-.5,0,.5.5,0,0,1,0-.5H1.015a.5.5,0,0,1,.5.5A.5.5,0,0,1,1.015.5Z" transform="translate(353.097 1266.672)" fill="#4489ef"></path>
      <path id="Line_273" d="M.422.5H0A.5.5,0,0,1-.5,0,.5.5,0,0,1,0-.5H.422a.5.5,0,0,1,.5.5A.5.5,0,0,1,.422.5Z" transform="translate(351.374 1266.672)" fill="#4489ef"></path>
      <path id="Line_274" d="M4.044.5H0A.5.5,0,0,1-.5,0,.5.5,0,0,1,0-.5H4.044a.5.5,0,0,1,.5.5A.5.5,0,0,1,4.044.5Z" transform="translate(351.986 1261.582)" fill="#4489ef"></path>
    </g>
  </symbol>
  <symbol xmlns="http://www.w3.org/2000/svg" viewBox="0 0 44.083 50.439" id="map">
    <g id="Group_688" transform="translate(-536.946 -857.092)">
      <path id="Line_236" d="M8.575,32.559-.769.222.769-.222l9.343,32.337Z" transform="translate(544.429 874.972)" fill="#394553"></path>
      <path id="Line_237" d="M.222,4.089-.222,2.552,11.3-.769,11.739.769Z" transform="translate(537.168 889.944)" fill="#394553"></path>
      <path id="Path_290" d="M27.074,59.242,20.937,37.827,31.052,34.81l.457,1.533-8.6,2.565,5.7,19.893Z" transform="translate(530.651 846.826)" fill="#394553"></path>
      <path id="Path_291" d="M18.642,31.053l-2.2-7.672,1.538-.441,1.751,6.112,7.626-2.3.462,1.532Z" transform="translate(531.998 850.376)" fill="#394553"></path>
      <path id="Line_238" d="M.221,7.939-.221,6.4,24.671-.769,25.114.769Z" transform="translate(555.915 889.498)" fill="#394553"></path>
      <path id="Path_292" d="M39.555.45a9.733,9.733,0,0,1,9.722,9.721c0,2.171-1.53,6.271-4.548,12.187-2.216,4.345-4.463,8.135-4.486,8.173a.8.8,0,0,1-1.376,0c-.022-.038-2.269-3.828-4.485-8.173-3.018-5.916-4.548-10.016-4.548-12.187A9.732,9.732,0,0,1,39.555.45Zm0,28.081c.831-1.447,2.3-4.057,3.752-6.907,1.994-3.908,4.37-9.068,4.37-11.453a8.121,8.121,0,0,0-16.243,0c0,2.385,2.376,7.544,4.37,11.453C37.257,24.474,38.725,27.084,39.555,28.531Z" transform="translate(528.16 856.642)" fill="#394553"></path>
      <path id="Path_293" d="M41.6,7.608a4.611,4.611,0,1,1-4.609,4.61A4.615,4.615,0,0,1,41.6,7.608Zm0,7.622a3.011,3.011,0,1,0-3.009-3.012A3.014,3.014,0,0,0,41.6,15.23Z" transform="translate(526.113 854.595)" fill="#394553"></path>
      <path id="Line_239" d="M1.06,6.645-.769.219.769-.219,2.6,6.207Z" transform="translate(574.159 891.388)" fill="#394553"></path>
    </g>
  </symbol>
  <symbol xmlns="http://www.w3.org/2000/svg" viewBox="0 0 21.474 14" id="menu">
    <g id="Group_713" transform="translate(-323 -33.5)">
      <g id="Group_576" transform="translate(-484.605 -494)">
        <path id="Line_279" d="M19.474,1H0A1,1,0,0,1-1,0,1,1,0,0,1,0-1H19.474a1,1,0,0,1,1,1A1,1,0,0,1,19.474,1Z" transform="translate(808.605 528.5)" fill="#1c3150"></path>
        <path id="Line_280" d="M19.474,1H0A1,1,0,0,1-1,0,1,1,0,0,1,0-1H19.474a1,1,0,0,1,1,1A1,1,0,0,1,19.474,1Z" transform="translate(808.605 534.5)" fill="#1c3150"></path>
        <path id="Line_281" d="M12.5,1H0A1,1,0,0,1-1,0,1,1,0,0,1,0-1H12.5a1,1,0,0,1,1,1A1,1,0,0,1,12.5,1Z" transform="translate(808.605 540.5)" fill="#1c3150"></path>
      </g>
    </g>
  </symbol>
  <symbol xmlns="http://www.w3.org/2000/svg" viewBox="0 0 16.599 16.599" id="menu_close">
    <g id="Group_714" transform="translate(-325.437 -32.201)">
      <path id="Line_280" d="M19.474,1H0A1,1,0,0,1-1,0,1,1,0,0,1,0-1H19.474a1,1,0,0,1,1,1A1,1,0,0,1,19.474,1Z" transform="translate(326.852 47.385) rotate(-45)" fill="#1c3150"></path>
      <path id="Line_301" d="M19.474,1H0A1,1,0,0,1-1,0,1,1,0,0,1,0-1H19.474a1,1,0,0,1,1,1A1,1,0,0,1,19.474,1Z" transform="translate(326.853 33.615) rotate(45)" fill="#1c3150"></path>
    </g>
  </symbol>
  <symbol xmlns="http://www.w3.org/2000/svg" viewBox="0 0 17 17" id="menu_plus">
    <g id="Group_711" transform="translate(-30 -174)">
      <g id="Group_656" transform="translate(3.663 510.574) rotate(-90)">
        <path id="Line_280" d="M8.147.5H0A.5.5,0,0,1-.5,0,.5.5,0,0,1,0-.5H8.147a.5.5,0,0,1,.5.5A.5.5,0,0,1,8.147.5Z" transform="translate(324 34.837)" fill="#4489ef"></path>
        <path id="Line_301" d="M8.147.5H0A.5.5,0,0,1-.5,0,.5.5,0,0,1,0-.5H8.147a.5.5,0,0,1,.5.5A.5.5,0,0,1,8.147.5Z" transform="translate(328.074 30.763) rotate(90)" fill="#4489ef"></path>
      </g>
      <path id="Ellipse_8" d="M8.5,1A7.5,7.5,0,1,0,16,8.5,7.508,7.508,0,0,0,8.5,1m0-1A8.5,8.5,0,1,1,0,8.5,8.5,8.5,0,0,1,8.5,0Z" transform="translate(30 174)" fill="#4489ef"></path>
    </g>
  </symbol>
  <symbol xmlns="http://www.w3.org/2000/svg" viewBox="0 0 5.683 9.796" id="menu_right">
    <g id="Group_712" transform="translate(-35.789 -323.169)">
      <path id="Line_280" d="M6.036.5H0A.5.5,0,0,1-.5,0,.5.5,0,0,1,0-.5H6.036a.5.5,0,0,1,.5.5A.5.5,0,0,1,6.036.5Z" transform="translate(40.765 328.144) rotate(-135)" fill="#4489ef"></path>
      <path id="Line_301" d="M6.036.5H0A.5.5,0,0,1-.5,0,.5.5,0,0,1,0-.5H6.036a.5.5,0,0,1,.5.5A.5.5,0,0,1,6.036.5Z" transform="translate(36.496 332.258) rotate(-45)" fill="#4489ef"></path>
    </g>
  </symbol>
  <symbol xmlns="http://www.w3.org/2000/svg" viewBox="0 0 43.573 67.048" id="microscope">
    <g id="Group_698" transform="translate(-1127.25 -597.329)">
      <path id="Path_281" d="M30.109,61.146a20.479,20.479,0,0,1-7.745-1.5,19.924,19.924,0,0,1-6.334-4.1,19.1,19.1,0,0,1-4.279-6.1,18.452,18.452,0,0,1-1.572-7.481,18.748,18.748,0,0,1,5.066-12.781,1,1,0,1,1,1.465,1.361A16.668,16.668,0,0,0,17.415,54.1a18.21,18.21,0,0,0,12.694,5.047,18.567,18.567,0,0,0,5.9-.953V49.664a1,1,0,0,1,2,0V58.9a1,1,0,0,1-.648.936A20.526,20.526,0,0,1,30.109,61.146Z" transform="translate(1127 597)" fill="#4489ef"></path>
      <path id="Path_282" d="M42.144,67.377H9.733a1,1,0,0,1-.712-.3A30.055,30.055,0,0,1,.25,45.9,29.55,29.55,0,0,1,3.494,32.378a31.353,31.353,0,0,1,8.7-10.472,1,1,0,1,1,1.226,1.581,29.34,29.34,0,0,0-8.142,9.8A27.568,27.568,0,0,0,2.25,45.9a28.044,28.044,0,0,0,7.906,19.476H42.144a1,1,0,0,1,0,2Z" transform="translate(1127 597)" fill="#4489ef"></path>
      <path id="Rectangle_206" d="M-1-1H10.921V29.23H-1ZM8.921,1H1V27.23H8.921Z" transform="translate(1141.694 611.449) rotate(-24.555)" fill="#4489ef"></path>
      <path id="Path_283" d="M13.531,10.1,10.512,3.847l7.7-3.518,3,6.218-1.8.869L17.259,2.962,13.2,4.817l2.131,4.415Z" transform="translate(1127 597)" fill="#4489ef"></path>
      <path id="Line_207" d="M.416,5.029-.416,3.209,8.6-.91,9.43.91Z" transform="translate(1150.613 626.874)" fill="#4489ef"></path>
      <path id="Line_208" d="M20.965,1H0A1,1,0,0,1-1,0,1,1,0,0,1,0-1H20.965a1,1,0,0,1,1,1A1,1,0,0,1,20.965,1Z" transform="translate(1148.858 646.419)" fill="#4489ef"></path>
      <path id="Line_209" d="M1,10.192H-1V0H1Z" transform="translate(1154.573 646.639)" fill="#4489ef"></path>
    </g>
  </symbol>
  <symbol xmlns="http://www.w3.org/2000/svg" viewBox="0 0 24 24" id="minus">
    <path id="Subtraction_6" d="M-5272,2689a11.921,11.921,0,0,1-8.485-3.514A11.919,11.919,0,0,1-5284,2677a11.92,11.92,0,0,1,3.515-8.485A11.922,11.922,0,0,1-5272,2665a11.922,11.922,0,0,1,8.485,3.515A11.921,11.921,0,0,1-5260,2677a11.922,11.922,0,0,1-3.515,8.486A11.921,11.921,0,0,1-5272,2689Zm-6-13.5v3h12v-3Z" transform="translate(5284 -2665)" fill="#5e6d83"></path>
  </symbol>
  <symbol xmlns="http://www.w3.org/2000/svg" viewBox="0 0 7.204 13.689" id="pagination_left">
    <g id="Group_144" transform="translate(419.422 529.204) rotate(180)">
      <path id="Path_20" d="M26.022,13.69a.359.359,0,0,1-.254-.613L32,6.845,25.768.613a.359.359,0,0,1,.508-.508l6.485,6.485a.36.36,0,0,1,0,.508l-6.485,6.485a.358.358,0,0,1-.254.105" transform="translate(386.556 515.514)" fill="#1c3150"></path>
    </g>
  </symbol>
  <symbol xmlns="http://www.w3.org/2000/svg" viewBox="0 0 45.817 35.872" id="picture">
    <g id="Group_693" transform="translate(-693.207 -2724.207)">
      <path id="Path_311" d="M47.967,31.9h-1.4V1.95H7.076V.55H47.967Z" transform="translate(691.057 2723.656)" fill="#1c3150"></path>
      <path id="Path_312" d="M1.4,38.307a.7.7,0,0,1-.511-1.178L14.225,22.885a.7.7,0,0,1,1.019,0L28.714,37.09a.7.7,0,0,1-1.016.963L14.74,24.384,1.913,38.086A.7.7,0,0,1,1.4,38.307Z" transform="translate(692.615 2717.583)" fill="#1c3150"></path>
      <path id="Rectangle_267" d="M-.7-.7H40.294V30.356H-.7ZM38.894.7H.7V28.956H38.894Z" transform="translate(693.907 2729.723)" fill="#1c3150"></path>
      <path id="Path_313" d="M50.193,38.972l-8.609-9.187L37.668,33.92l-1.017-.963,4.426-4.675a.7.7,0,0,1,1.019,0l9.118,9.729Z" transform="translate(682.794 2716.1)" fill="#1c3150"></path>
      <path id="Path_314" d="M34.762,14.309a4.15,4.15,0,1,1-4.148,4.15A4.154,4.154,0,0,1,34.762,14.309Zm0,6.9a2.75,2.75,0,1,0-2.748-2.75A2.753,2.753,0,0,0,34.762,21.209Z" transform="translate(684.399 2719.877)" fill="#1c3150"></path>
    </g>
  </symbol>
  <symbol id="pagination_right" xmlns="http://www.w3.org/2000/svg" viewBox="0 0 7.204 13.689">
    <path id="Path_20" d="M.359,0A.359.359,0,0,0,.105.613L6.337,6.845.105,13.076a.359.359,0,1,0,.508.508L7.1,7.1a.36.36,0,0,0,0-.508L.614.105A.358.358,0,0,0,.359,0" transform="translate(0 0)" fill="#1c3150"></path>
  </symbol>
  <symbol xmlns="http://www.w3.org/2000/svg" viewBox="0 0 20.216 22.488" id="person">
    <g id="Group_552" transform="translate(0.6 -0.4)">
      <g id="Group_551" transform="translate(0 1)">
        <path id="Path_348" d="M23.009,10.158A4.754,4.754,0,1,1,27.761,5.4,4.759,4.759,0,0,1,23.009,10.158Zm0-8.308A3.554,3.554,0,1,0,26.561,5.4,3.558,3.558,0,0,0,23.009,1.85Z" transform="translate(-13.501 -1.25)" fill="#1c3150"></path>
        <path id="Path_349" d="M30.615,29.933h-1.2V23.481a3.38,3.38,0,0,0-1.393-2.629A5.655,5.655,0,0,0,24.5,19.693H16.514a5.654,5.654,0,0,0-3.521,1.159A3.38,3.38,0,0,0,11.6,23.481v6.453H10.4V23.481c0-2.75,2.743-4.988,6.115-4.988H24.5c3.372,0,6.115,2.237,6.115,4.988Z" transform="translate(-10.999 -8.046)" fill="#1c3150"></path>
        <path id="Line_277" d="M.6,3.656H-.6V0H.6Z" transform="translate(14.994 18.231)" fill="#1c3150"></path>
        <path id="Line_278" d="M.6,3.636H-.6V0H.6Z" transform="translate(4.022 18.231)" fill="#1c3150"></path>
      </g>
    </g>
  </symbol>
  <symbol xmlns="http://www.w3.org/2000/svg" viewBox="0 0 29.59 45.678" id="pin">
    <path id="Union_17" d="M-5269.267,2710.675a.808.808,0,0,1-.6-.344h0c-.009-.013-.017-.025-.025-.038l0-.007c-.369-.607-3.7-6.112-7.016-12.444a103.355,103.355,0,0,1-5.71-12.459,19.345,19.345,0,0,1-1.378-5.962,14.627,14.627,0,0,1,14.794-14.42,14.629,14.629,0,0,1,14.8,14.42,19.345,19.345,0,0,1-1.378,5.962,103.508,103.508,0,0,1-5.713,12.459c-3.315,6.326-6.646,11.837-7.015,12.444l0,.007a.817.817,0,0,1-.1.133.8.8,0,0,1-.584.253Zm-7.787-31.255a7.745,7.745,0,0,0,7.848,7.618,7.744,7.744,0,0,0,7.848-7.618,7.744,7.744,0,0,0-7.848-7.619A7.745,7.745,0,0,0-5277.054,2679.42Z" transform="translate(5284 -2665)" fill="#1c3150"></path>
  </symbol>
</svg>